<?xml version="1.0" encoding="utf-8"?>
<!-- Generator: Adobe Illustrator 24.2.1, SVG Export Plug-In . SVG Version: 6.00 Build 0)  -->
<svg version="1.1" id="design" xmlns="http://www.w3.org/2000/svg" xmlns:xlink="http://www.w3.org/1999/xlink" x="0px" y="0px"
	 viewBox="0 0 960 305" style="enable-background:new 0 0 960 305;" xml:space="preserve">
<style type="text/css">
	.st0{fill:#005EB8;}
	.st1{fill:#70BEF2;}
	.st2{fill:#EAEAEA;}
	.st3{fill:#F7F7F7;}
	.st4{fill:#C9E8FF;}
	.st5{fill:#ED8B00;}
	.st6{fill:#FFFFFF;}
	.st7{fill:#F5B29C;}
	.st8{fill:#21333A;}
	.st9{fill:#034A84;}
	.st10{fill:#F5A88B;}
	.st11{fill:#B9B3C0;}
	.st12{fill:#012C49;}
	.st13{fill:#C4846E;}
	.st14{fill:#0A84F2;}
	.st15{fill:#FBB040;}
	.st16{fill:#2D3152;}
	.st17{fill:none;stroke:#70BEF2;stroke-width:2;stroke-miterlimit:10;stroke-dasharray:3,3;}
	.st18{fill:#E5F3FD;}
	.st19{fill:#F9D1C5;}
	.st20{fill:#FFB285;}
	.st21{fill:#02355E;}
</style>
<g>
	<g>
		<g>
			<path class="st0" d="M19.5,252.4c0,0.9-0.2,1.7-0.7,2.4c-0.4,0.7-1.1,1.2-1.9,1.6s-1.8,0.6-3,0.6c-1,0-1.7-0.1-2.4-0.2
				c-0.6-0.1-1.3-0.4-2-0.7v-3.4c0.7,0.4,1.5,0.7,2.3,0.9c0.8,0.2,1.5,0.3,2.2,0.3c0.6,0,1-0.1,1.3-0.3c0.3-0.2,0.4-0.5,0.4-0.8
				c0-0.2-0.1-0.4-0.2-0.5s-0.3-0.3-0.5-0.4c-0.2-0.2-0.9-0.5-1.9-0.9c-0.9-0.4-1.6-0.8-2.1-1.2c-0.5-0.4-0.8-0.9-1-1.4
				c-0.2-0.5-0.3-1.1-0.3-1.8c0-1.3,0.5-2.3,1.4-3.1c1-0.7,2.3-1.1,3.9-1.1c1.5,0,3,0.3,4.5,1l-1.2,3c-1.3-0.6-2.5-0.9-3.5-0.9
				c-0.5,0-0.9,0.1-1.1,0.3s-0.3,0.4-0.3,0.7c0,0.3,0.1,0.5,0.4,0.8c0.3,0.2,1.1,0.6,2.4,1.2c1.2,0.6,2.1,1.1,2.6,1.8
				S19.5,251.5,19.5,252.4z"/>
			<path class="st0" d="M33.8,242.5v8.6c0,1.9-0.5,3.3-1.6,4.3c-1.1,1-2.6,1.5-4.6,1.5c-1.9,0-3.4-0.5-4.5-1.5c-1-1-1.6-2.4-1.6-4.3
				v-8.7h3.9v8.4c0,1,0.2,1.7,0.6,2.2c0.4,0.5,0.9,0.7,1.7,0.7c0.8,0,1.4-0.2,1.7-0.7c0.4-0.5,0.5-1.2,0.5-2.2v-8.4H33.8z"/>
			<path class="st0" d="M47.2,247c0,1.6-0.5,2.8-1.4,3.7s-2.3,1.3-4,1.3h-1.1v4.7h-3.9v-14.3h4.9c1.8,0,3.2,0.4,4.1,1.2
				C46.7,244.5,47.2,245.6,47.2,247z M40.7,248.9h0.7c0.6,0,1-0.2,1.4-0.5c0.3-0.3,0.5-0.8,0.5-1.3c0-1-0.5-1.4-1.6-1.4h-1V248.9z"
				/>
			<path class="st0" d="M59.8,247c0,1.6-0.5,2.8-1.4,3.7s-2.3,1.3-4,1.3h-1.1v4.7h-3.9v-14.3h4.9c1.8,0,3.2,0.4,4.1,1.2
				C59.4,244.5,59.8,245.6,59.8,247z M53.3,248.9H54c0.6,0,1-0.2,1.4-0.5c0.3-0.3,0.5-0.8,0.5-1.3c0-1-0.5-1.4-1.6-1.4h-1V248.9z"/>
			<path class="st0" d="M75.5,249.6c0,2.4-0.6,4.2-1.8,5.5c-1.2,1.3-2.9,1.9-5.2,1.9c-2.2,0-4-0.6-5.2-1.9c-1.2-1.3-1.8-3.1-1.8-5.5
				c0-2.4,0.6-4.2,1.8-5.4c1.2-1.3,2.9-1.9,5.2-1.9c2.3,0,4,0.6,5.2,1.9C74.9,245.4,75.5,247.2,75.5,249.6z M65.6,249.6
				c0,2.8,1,4.1,2.9,4.1c1,0,1.7-0.3,2.2-1c0.5-0.7,0.7-1.7,0.7-3.1c0-1.4-0.2-2.5-0.7-3.2c-0.5-0.7-1.2-1-2.1-1
				C66.6,245.4,65.6,246.8,65.6,249.6z"/>
			<path class="st0" d="M81.9,251.6v5.2H78v-14.3h4.7c3.9,0,5.8,1.4,5.8,4.2c0,1.7-0.8,2.9-2.4,3.8l4.2,6.2h-4.4l-3-5.2H81.9z
				 M81.9,248.7h0.7c1.3,0,2-0.6,2-1.8c0-1-0.7-1.5-2-1.5h-0.8V248.7z"/>
			<path class="st0" d="M97.9,256.8H94v-11.1h-3.5v-3.2h10.8v3.2h-3.5V256.8z"/>
			<path class="st1" d="M108.8,242.5h4.4c2,0,3.5,0.3,4.4,0.9s1.4,1.5,1.4,2.7c0,0.9-0.2,1.6-0.6,2.1s-0.9,0.9-1.6,1v0.1
				c0.9,0.2,1.6,0.6,2,1.1c0.4,0.6,0.6,1.3,0.6,2.2c0,1.3-0.5,2.3-1.4,3c-0.9,0.7-2.2,1.1-3.8,1.1h-5.3V242.5z M111.9,248.2h1.8
				c0.8,0,1.4-0.1,1.8-0.4s0.6-0.7,0.6-1.3c0-0.5-0.2-0.9-0.6-1.2c-0.4-0.2-1-0.4-1.9-0.4h-1.6V248.2z M111.9,250.6v3.7h2
				c0.8,0,1.4-0.2,1.8-0.5c0.4-0.3,0.6-0.8,0.6-1.5c0-1.2-0.8-1.8-2.5-1.8H111.9z"/>
			<path class="st1" d="M133.9,242.5v9.2c0,1.1-0.2,2-0.7,2.8c-0.5,0.8-1.2,1.4-2,1.8c-0.9,0.4-1.9,0.6-3.2,0.6
				c-1.8,0-3.3-0.5-4.3-1.4c-1-0.9-1.5-2.2-1.5-3.9v-9.2h3v8.7c0,1.1,0.2,1.9,0.7,2.4c0.4,0.5,1.2,0.8,2.2,0.8c1,0,1.7-0.3,2.2-0.8
				s0.7-1.3,0.7-2.4v-8.7H133.9z"/>
			<path class="st1" d="M145.8,252.8c0,1.3-0.5,2.3-1.4,3c-0.9,0.7-2.2,1.1-3.9,1.1c-1.5,0-2.9-0.3-4-0.9v-2.8
				c1,0.4,1.8,0.7,2.4,0.9s1.3,0.3,1.8,0.3c0.7,0,1.2-0.1,1.5-0.4s0.5-0.6,0.5-1.1c0-0.3-0.1-0.5-0.2-0.7c-0.2-0.2-0.4-0.4-0.7-0.6
				c-0.3-0.2-0.9-0.5-1.9-1c-0.9-0.4-1.5-0.8-2-1.2c-0.4-0.4-0.8-0.8-1-1.3c-0.3-0.5-0.4-1.1-0.4-1.8c0-1.3,0.4-2.3,1.3-3
				s2-1.1,3.5-1.1c0.7,0,1.5,0.1,2.1,0.3s1.4,0.4,2.1,0.7l-1,2.4c-0.8-0.3-1.4-0.5-1.9-0.7c-0.5-0.1-1-0.2-1.5-0.2
				c-0.6,0-1,0.1-1.3,0.4c-0.3,0.3-0.5,0.6-0.5,1c0,0.3,0.1,0.5,0.2,0.7c0.1,0.2,0.3,0.4,0.6,0.6s0.9,0.5,1.9,1
				c1.3,0.6,2.2,1.3,2.7,1.9C145.6,251.1,145.8,251.9,145.8,252.8z"/>
			<path class="st1" d="M148.4,256.8v-14.3h3v14.3H148.4z"/>
			<path class="st1" d="M167.7,256.8h-3.8l-6.2-10.8h-0.1c0.1,1.9,0.2,3.3,0.2,4.1v6.7H155v-14.3h3.8l6.2,10.7h0.1
				c-0.1-1.9-0.1-3.2-0.1-3.9v-6.8h2.7V256.8z"/>
			<path class="st1" d="M179.5,256.8h-8.2v-14.3h8.2v2.5h-5.2v3.1h4.8v2.5h-4.8v3.7h5.2V256.8z"/>
			<path class="st1" d="M190.9,252.8c0,1.3-0.5,2.3-1.4,3c-0.9,0.7-2.2,1.1-3.9,1.1c-1.5,0-2.9-0.3-4-0.9v-2.8
				c1,0.4,1.8,0.7,2.4,0.9s1.3,0.3,1.8,0.3c0.7,0,1.2-0.1,1.5-0.4s0.5-0.6,0.5-1.1c0-0.3-0.1-0.5-0.2-0.7c-0.2-0.2-0.4-0.4-0.7-0.6
				c-0.3-0.2-0.9-0.5-1.9-1c-0.9-0.4-1.5-0.8-2-1.2c-0.4-0.4-0.8-0.8-1-1.3c-0.3-0.5-0.4-1.1-0.4-1.8c0-1.3,0.4-2.3,1.3-3
				s2-1.1,3.5-1.1c0.7,0,1.5,0.1,2.1,0.3s1.4,0.4,2.1,0.7l-1,2.4c-0.8-0.3-1.4-0.5-1.9-0.7c-0.5-0.1-1-0.2-1.5-0.2
				c-0.6,0-1,0.1-1.3,0.4c-0.3,0.3-0.5,0.6-0.5,1c0,0.3,0.1,0.5,0.2,0.7c0.1,0.2,0.3,0.4,0.6,0.6s0.9,0.5,1.9,1
				c1.3,0.6,2.2,1.3,2.7,1.9C190.7,251.1,190.9,251.9,190.9,252.8z"/>
			<path class="st1" d="M201.9,252.8c0,1.3-0.5,2.3-1.4,3c-0.9,0.7-2.2,1.1-3.9,1.1c-1.5,0-2.9-0.3-4-0.9v-2.8
				c1,0.4,1.8,0.7,2.4,0.9s1.3,0.3,1.8,0.3c0.7,0,1.2-0.1,1.5-0.4s0.5-0.6,0.5-1.1c0-0.3-0.1-0.5-0.2-0.7c-0.2-0.2-0.4-0.4-0.7-0.6
				c-0.3-0.2-0.9-0.5-1.9-1c-0.9-0.4-1.5-0.8-2-1.2c-0.4-0.4-0.8-0.8-1-1.3c-0.3-0.5-0.4-1.1-0.4-1.8c0-1.3,0.4-2.3,1.3-3
				s2-1.1,3.5-1.1c0.7,0,1.5,0.1,2.1,0.3s1.4,0.4,2.1,0.7l-1,2.4c-0.8-0.3-1.4-0.5-1.9-0.7c-0.5-0.1-1-0.2-1.5-0.2
				c-0.6,0-1,0.1-1.3,0.4c-0.3,0.3-0.5,0.6-0.5,1c0,0.3,0.1,0.5,0.2,0.7c0.1,0.2,0.3,0.4,0.6,0.6s0.9,0.5,1.9,1
				c1.3,0.6,2.2,1.3,2.7,1.9C201.7,251.1,201.9,251.9,201.9,252.8z"/>
			<path class="st1" d="M89.4,273.6c0,2.4-0.6,4.2-1.8,5.4s-2.9,1.9-5,1.9s-3.9-0.6-5-1.9s-1.8-3.1-1.8-5.5c0-2.4,0.6-4.2,1.8-5.4
				c1.2-1.3,2.9-1.9,5.1-1.9s3.9,0.6,5,1.9C88.8,269.4,89.4,271.3,89.4,273.6z M79,273.6c0,1.6,0.3,2.8,0.9,3.6
				c0.6,0.8,1.5,1.2,2.7,1.2c2.4,0,3.6-1.6,3.6-4.8c0-3.2-1.2-4.8-3.6-4.8c-1.2,0-2.1,0.4-2.7,1.2S79,272,79,273.6z"/>
			<path class="st1" d="M102.2,271c0,1.5-0.5,2.7-1.4,3.5c-1,0.8-2.3,1.2-4.1,1.2h-1.3v5.1h-3v-14.3h4.6c1.7,0,3,0.4,4,1.1
				C101.8,268.4,102.2,269.5,102.2,271z M95.4,273.2h1c0.9,0,1.6-0.2,2.1-0.6c0.5-0.4,0.7-0.9,0.7-1.6c0-0.7-0.2-1.2-0.6-1.6
				c-0.4-0.3-1-0.5-1.8-0.5h-1.4V273.2z"/>
			<path class="st1" d="M113.1,280.8h-8.2v-14.3h8.2v2.5h-5.2v3.1h4.8v2.5h-4.8v3.7h5.2V280.8z"/>
			<path class="st1" d="M119.1,275.3v5.5h-3v-14.3h4.2c1.9,0,3.4,0.4,4.3,1.1c0.9,0.7,1.4,1.8,1.4,3.2c0,0.8-0.2,1.6-0.7,2.2
				s-1.1,1.2-2,1.5c2.1,3.2,3.5,5.3,4.2,6.2h-3.4l-3.4-5.5H119.1z M119.1,272.8h1c1,0,1.7-0.2,2.1-0.5c0.5-0.3,0.7-0.8,0.7-1.5
				c0-0.7-0.2-1.2-0.7-1.4c-0.5-0.3-1.2-0.4-2.2-0.4h-0.9V272.8z"/>
			<path class="st1" d="M138.1,280.8l-1-3.4h-5.2l-1,3.4h-3.3l5-14.3h3.7l5.1,14.3H138.1z M136.3,274.8c-1-3.1-1.5-4.8-1.6-5.2
				c-0.1-0.4-0.2-0.7-0.3-1c-0.2,0.8-0.8,2.9-1.8,6.2H136.3z"/>
			<path class="st1" d="M148.6,280.8h-3V269h-3.9v-2.5h10.8v2.5h-3.9V280.8z"/>
			<path class="st1" d="M154.7,280.8v-14.3h3v14.3H154.7z"/>
			<path class="st1" d="M174.3,273.6c0,2.4-0.6,4.2-1.8,5.4s-2.9,1.9-5,1.9s-3.9-0.6-5-1.9s-1.8-3.1-1.8-5.5c0-2.4,0.6-4.2,1.8-5.4
				c1.2-1.3,2.9-1.9,5.1-1.9s3.9,0.6,5,1.9C173.7,269.4,174.3,271.3,174.3,273.6z M163.9,273.6c0,1.6,0.3,2.8,0.9,3.6
				c0.6,0.8,1.5,1.2,2.7,1.2c2.4,0,3.6-1.6,3.6-4.8c0-3.2-1.2-4.8-3.6-4.8c-1.2,0-2.1,0.4-2.7,1.2S163.9,272,163.9,273.6z"/>
			<path class="st1" d="M189.9,280.8h-3.8l-6.2-10.8h-0.1c0.1,1.9,0.2,3.3,0.2,4.1v6.7h-2.7v-14.3h3.8l6.2,10.7h0.1
				c-0.1-1.9-0.1-3.2-0.1-3.9v-6.8h2.7V280.8z"/>
			<path class="st1" d="M201.9,276.8c0,1.3-0.5,2.3-1.4,3s-2.2,1.1-3.9,1.1c-1.5,0-2.9-0.3-4-0.9v-2.8c1,0.4,1.8,0.7,2.4,0.9
				s1.3,0.3,1.8,0.3c0.7,0,1.2-0.1,1.5-0.4s0.5-0.6,0.5-1.1c0-0.3-0.1-0.5-0.2-0.7c-0.2-0.2-0.4-0.4-0.7-0.6c-0.3-0.2-0.9-0.5-1.9-1
				c-0.9-0.4-1.5-0.8-2-1.2c-0.4-0.4-0.8-0.8-1-1.3c-0.3-0.5-0.4-1.1-0.4-1.8c0-1.3,0.4-2.3,1.3-3s2-1.1,3.5-1.1
				c0.7,0,1.5,0.1,2.1,0.3s1.4,0.4,2.1,0.7l-1,2.4c-0.8-0.3-1.4-0.5-1.9-0.7c-0.5-0.1-1-0.2-1.5-0.2c-0.6,0-1,0.1-1.3,0.4
				c-0.3,0.3-0.5,0.6-0.5,1c0,0.3,0.1,0.5,0.2,0.7c0.1,0.2,0.3,0.4,0.6,0.6s0.9,0.5,1.9,1c1.3,0.6,2.2,1.3,2.7,1.9
				C201.7,275.1,201.9,275.9,201.9,276.8z"/>
		</g>
	</g>
	<path class="st2" d="M551,302.5c0,1.4-12.5,2.5-27.9,2.5c-15.4,0-27.9-1.1-27.9-2.5c0-1.4,12.5-2.5,27.9-2.5
		C538.5,300,551,301.1,551,302.5z"/>
	<path class="st2" d="M623.5,293.7c0,1.3-7.8,2.4-17.4,2.4c-9.6,0-17.4-1.1-17.4-2.4c0-1.3,7.8-2.4,17.4-2.4
		C615.7,291.3,623.5,292.4,623.5,293.7z"/>
	<path class="st3" d="M264.5,293.7c0,1.3-7.8,2.4-17.4,2.4c-9.6,0-17.4-1.1-17.4-2.4c0-1.3,7.8-2.4,17.4-2.4
		C256.7,291.3,264.5,292.4,264.5,293.7z"/>
	<g>
		<g>
			<path class="st3" d="M754.8,172.5h-0.1c-22.1,0-40-17.9-40-40v0c0-22.1,17.9-40,40-40h0.1c22.1,0,40,17.9,40,40v0
				C794.8,154.6,776.9,172.5,754.8,172.5z"/>
		</g>
	</g>
	<g>
		<path class="st0" d="M730.8,193.9c0,1.6-0.5,2.8-1.4,3.7s-2.3,1.3-4,1.3h-1.1v4.7h-3.9v-14.3h4.9c1.8,0,3.2,0.4,4.1,1.2
			C730.4,191.4,730.8,192.5,730.8,193.9z M724.3,195.8h0.7c0.6,0,1-0.2,1.4-0.5c0.3-0.3,0.5-0.8,0.5-1.3c0-1-0.5-1.4-1.6-1.4h-1
			V195.8z"/>
		<path class="st0" d="M733.1,203.7v-14.3h3.9v11.2h5.5v3.1H733.1z"/>
		<path class="st0" d="M753.5,203.7l-0.7-2.7h-4.6l-0.7,2.7h-4.2l4.7-14.3h5.1l4.7,14.3H753.5z M752,197.8l-0.6-2.3
			c-0.1-0.5-0.3-1.2-0.5-2c-0.2-0.8-0.3-1.4-0.4-1.8c-0.1,0.3-0.2,0.9-0.3,1.6s-0.6,2.3-1.1,4.5H752z"/>
		<path class="st0" d="M772.8,203.7h-5.1l-5.2-10.1h-0.1c0.1,1.6,0.2,2.8,0.2,3.6v6.4h-3.4v-14.3h5l5.2,9.9h0.1
			c-0.1-1.4-0.1-2.6-0.1-3.5v-6.5h3.4V203.7z"/>
		<path class="st0" d="M789.9,203.7l-0.7-2.7h-4.6l-0.7,2.7h-4.2l4.7-14.3h5.1l4.7,14.3H789.9z M788.4,197.8l-0.6-2.3
			c-0.1-0.5-0.3-1.2-0.5-2c-0.2-0.8-0.3-1.4-0.4-1.8c-0.1,0.3-0.2,0.9-0.3,1.6s-0.6,2.3-1.1,4.5H788.4z"/>
		<path class="st0" d="M809.2,203.7h-5.1l-5.2-10.1h-0.1c0.1,1.6,0.2,2.8,0.2,3.6v6.4h-3.4v-14.3h5l5.2,9.9h0.1
			c-0.1-1.4-0.1-2.6-0.1-3.5v-6.5h3.4V203.7z"/>
		<path class="st0" d="M824.4,196.2c0,2.4-0.7,4.2-2,5.5s-3.2,1.9-5.5,1.9h-4.6v-14.3h4.9c2.3,0,4.1,0.6,5.3,1.8
			S824.4,194,824.4,196.2z M820.4,196.4c0-1.3-0.3-2.3-0.8-2.9c-0.5-0.6-1.3-0.9-2.4-0.9h-1.1v8h0.9c1.2,0,2-0.3,2.6-1
			C820.2,198.8,820.4,197.8,820.4,196.4z"/>
		<path class="st0" d="M832.2,203.7v-14.3h3.9v14.3H832.2z"/>
		<path class="st0" d="M845.4,203.7l-2.9-10.3h-0.1c0.1,1.8,0.2,3.1,0.2,4.1v6.2h-3.4v-14.3h5.1l3,10.1h0.1l2.9-10.1h5.1v14.3h-3.5
			v-6.3c0-0.3,0-0.7,0-1.1c0-0.4,0.1-1.4,0.1-2.9h-0.1l-2.9,10.3H845.4z"/>
		<path class="st0" d="M868.9,193.9c0,1.6-0.5,2.8-1.4,3.7s-2.3,1.3-4,1.3h-1.1v4.7h-3.9v-14.3h4.9c1.8,0,3.2,0.4,4.1,1.2
			C868.4,191.4,868.9,192.5,868.9,193.9z M862.4,195.8h0.7c0.6,0,1-0.2,1.4-0.5c0.3-0.3,0.5-0.8,0.5-1.3c0-1-0.5-1.4-1.6-1.4h-1
			V195.8z"/>
		<path class="st0" d="M871.1,203.7v-14.3h3.9v11.2h5.5v3.1H871.1z"/>
		<path class="st0" d="M891.3,203.7h-8.5v-14.3h8.5v3.1h-4.6v2.2h4.3v3.1h-4.3v2.7h4.6V203.7z"/>
		<path class="st0" d="M900,203.7l-2.9-10.3H897c0.1,1.8,0.2,3.1,0.2,4.1v6.2h-3.4v-14.3h5.1l3,10.1h0.1l2.9-10.1h5.1v14.3h-3.5
			v-6.3c0-0.3,0-0.7,0-1.1c0-0.4,0.1-1.4,0.1-2.9h-0.1l-2.9,10.3H900z"/>
		<path class="st0" d="M921.6,203.7h-8.5v-14.3h8.5v3.1h-4.6v2.2h4.3v3.1h-4.3v2.7h4.6V203.7z"/>
		<path class="st0" d="M937.7,203.7h-5.1l-5.2-10.1h-0.1c0.1,1.6,0.2,2.8,0.2,3.6v6.4h-3.4v-14.3h5l5.2,9.9h0.1
			c-0.1-1.4-0.1-2.6-0.1-3.5v-6.5h3.4V203.7z"/>
		<path class="st0" d="M947,203.7h-3.9v-11.1h-3.5v-3.2h10.8v3.2H947V203.7z"/>
		<path class="st1" d="M733.4,227.7h-3.8l-6.2-10.8h-0.1c0.1,1.9,0.2,3.3,0.2,4.1v6.7h-2.7v-14.3h3.8l6.2,10.7h0.1
			c-0.1-1.9-0.1-3.2-0.1-3.9v-6.8h2.7V227.7z"/>
		<path class="st1" d="M745.2,227.7H737v-14.3h8.2v2.5H740v3.1h4.8v2.5H740v3.7h5.2V227.7z"/>
		<path class="st1" d="M762.1,227.7h-3.4l-1.9-7.5c-0.1-0.3-0.2-0.8-0.4-1.7c-0.2-0.8-0.3-1.4-0.3-1.7c0,0.4-0.1,0.9-0.3,1.7
			c-0.2,0.8-0.3,1.3-0.4,1.7l-1.9,7.5H750l-3.6-14.3h3l1.8,7.8c0.3,1.4,0.5,2.7,0.7,3.7c0-0.4,0.1-0.9,0.3-1.7
			c0.1-0.8,0.3-1.4,0.4-1.8l2.1-8h2.9l2.1,8c0.1,0.4,0.2,0.9,0.3,1.6c0.1,0.7,0.2,1.4,0.3,1.9c0.1-0.5,0.2-1.1,0.3-1.9
			c0.1-0.8,0.3-1.4,0.4-1.8l1.8-7.8h3L762.1,227.7z"/>
		<path class="st1" d="M772.7,227.7v-14.3h3v14.3H772.7z"/>
		<path class="st1" d="M784.8,227.7h-3v-11.8h-3.9v-2.5h10.8v2.5h-3.9V227.7z"/>
		<path class="st1" d="M806,217.8c0,1.5-0.5,2.7-1.4,3.5c-1,0.8-2.3,1.2-4.1,1.2h-1.3v5.1h-3v-14.3h4.6c1.7,0,3,0.4,4,1.1
			C805.5,215.3,806,216.4,806,217.8z M799.1,220.1h1c0.9,0,1.6-0.2,2.1-0.6c0.5-0.4,0.7-0.9,0.7-1.6c0-0.7-0.2-1.2-0.6-1.6
			c-0.4-0.3-1-0.5-1.8-0.5h-1.4V220.1z"/>
		<path class="st1" d="M811.7,222.2v5.5h-3v-14.3h4.2c1.9,0,3.4,0.4,4.3,1.1c0.9,0.7,1.4,1.8,1.4,3.2c0,0.8-0.2,1.6-0.7,2.2
			s-1.1,1.2-2,1.5c2.1,3.2,3.5,5.3,4.2,6.2h-3.4l-3.4-5.5H811.7z M811.7,219.7h1c1,0,1.7-0.2,2.1-0.5c0.5-0.3,0.7-0.8,0.7-1.5
			c0-0.7-0.2-1.2-0.7-1.4c-0.5-0.3-1.2-0.4-2.2-0.4h-0.9V219.7z"/>
		<path class="st1" d="M834.8,220.5c0,2.4-0.6,4.2-1.8,5.4s-2.9,1.9-5,1.9s-3.9-0.6-5-1.9s-1.8-3.1-1.8-5.5c0-2.4,0.6-4.2,1.8-5.4
			c1.2-1.3,2.9-1.9,5.1-1.9s3.9,0.6,5,1.9C834.2,216.3,834.8,218.1,834.8,220.5z M824.4,220.5c0,1.6,0.3,2.8,0.9,3.6
			c0.6,0.8,1.5,1.2,2.7,1.2c2.4,0,3.6-1.6,3.6-4.8c0-3.2-1.2-4.8-3.6-4.8c-1.2,0-2.1,0.4-2.7,1.2S824.4,218.9,824.4,220.5z"/>
		<path class="st1" d="M836.3,231.9c-0.7,0-1.3-0.1-1.8-0.2v-2.5c0.5,0.1,1,0.2,1.4,0.2c0.7,0,1.1-0.2,1.4-0.6
			c0.3-0.4,0.4-1.1,0.4-1.9v-13.4h3v13.4c0,1.7-0.4,2.9-1.1,3.8C838.9,231.4,837.8,231.9,836.3,231.9z"/>
		<path class="st1" d="M852.6,227.7h-8.2v-14.3h8.2v2.5h-5.2v3.1h4.8v2.5h-4.8v3.7h5.2V227.7z"/>
		<path class="st1" d="M861.7,215.7c-1.1,0-2,0.4-2.6,1.3c-0.6,0.9-0.9,2-0.9,3.6c0,3.2,1.2,4.8,3.6,4.8c1,0,2.2-0.3,3.6-0.8v2.5
			c-1.2,0.5-2.5,0.7-3.9,0.7c-2.1,0-3.7-0.6-4.8-1.9s-1.7-3.1-1.7-5.4c0-1.5,0.3-2.8,0.8-3.9c0.5-1.1,1.3-2,2.3-2.6s2.2-0.9,3.6-0.9
			c1.4,0,2.8,0.3,4.2,1l-1,2.5c-0.5-0.3-1.1-0.5-1.6-0.7C862.7,215.8,862.2,215.7,861.7,215.7z"/>
		<path class="st1" d="M873.9,227.7h-3v-11.8h-3.9v-2.5h10.8v2.5h-3.9V227.7z"/>
		<path class="st1" d="M888.4,223.7c0,1.3-0.5,2.3-1.4,3s-2.2,1.1-3.9,1.1c-1.5,0-2.9-0.3-4-0.9v-2.8c1,0.4,1.8,0.7,2.4,0.9
			s1.3,0.3,1.8,0.3c0.7,0,1.2-0.1,1.5-0.4s0.5-0.6,0.5-1.1c0-0.3-0.1-0.5-0.2-0.7c-0.2-0.2-0.4-0.4-0.7-0.6c-0.3-0.2-0.9-0.5-1.9-1
			c-0.9-0.4-1.5-0.8-2-1.2c-0.4-0.4-0.8-0.8-1-1.3c-0.3-0.5-0.4-1.1-0.4-1.8c0-1.3,0.4-2.3,1.3-3s2-1.1,3.5-1.1
			c0.7,0,1.5,0.1,2.1,0.3s1.4,0.4,2.1,0.7l-1,2.4c-0.8-0.3-1.4-0.5-1.9-0.7c-0.5-0.1-1-0.2-1.5-0.2c-0.6,0-1,0.1-1.3,0.4
			c-0.3,0.3-0.5,0.6-0.5,1c0,0.3,0.1,0.5,0.2,0.7c0.1,0.2,0.3,0.4,0.6,0.6s0.9,0.5,1.9,1c1.3,0.6,2.2,1.3,2.7,1.9
			C888.1,222,888.4,222.8,888.4,223.7z"/>
	</g>
	<g>
		<g>
			<path class="st3" d="M304.4,95.7h-1.4c-21.7,0-39.3-17.6-39.3-39.3V55c0-21.7,17.6-39.3,39.3-39.3h1.4
				c21.7,0,39.3,17.6,39.3,39.3v1.4C343.8,78.1,326.1,95.7,304.4,95.7z"/>
		</g>
	</g>
	<g>
		<g>
			<path class="st3" d="M166.9,226.6h-1.4c-21.7,0-39.3-17.6-39.3-39.3V186c0-21.7,17.6-39.3,39.3-39.3h1.4
				c21.7,0,39.3,17.6,39.3,39.3v1.4C206.2,209,188.6,226.6,166.9,226.6z"/>
		</g>
	</g>
	<g>
		<g>
			<path class="st0" d="M142.9,29.1c0,2.4-0.6,4.2-1.8,5.5s-2.9,1.9-5.2,1.9c-2.2,0-4-0.6-5.2-1.9s-1.8-3.1-1.8-5.5
				c0-2.4,0.6-4.2,1.8-5.4s2.9-1.9,5.2-1.9c2.3,0,4,0.6,5.2,1.9S142.9,26.7,142.9,29.1z M133.1,29.1c0,2.8,1,4.1,2.9,4.1
				c1,0,1.7-0.3,2.2-1c0.5-0.7,0.7-1.7,0.7-3.1c0-1.4-0.2-2.5-0.7-3.2s-1.2-1-2.1-1C134.1,25,133.1,26.4,133.1,29.1z"/>
			<path class="st0" d="M155.8,26.6c0,1.6-0.5,2.8-1.4,3.7s-2.3,1.3-4,1.3h-1.1v4.7h-3.9V22h4.9c1.8,0,3.2,0.4,4.1,1.2
				S155.8,25.1,155.8,26.6z M149.3,28.4h0.7c0.6,0,1-0.2,1.4-0.5s0.5-0.8,0.5-1.3c0-1-0.5-1.4-1.6-1.4h-1V28.4z"/>
			<path class="st0" d="M164.4,36.3h-3.9V25.2h-3.5V22h10.8v3.2h-3.5V36.3z"/>
			<path class="st0" d="M169.9,36.3V22h3.9v14.3H169.9z"/>
			<path class="st0" d="M183.1,36.3L180.2,26h-0.1c0.1,1.8,0.2,3.1,0.2,4.1v6.2h-3.4V22h5.1l3,10.1h0.1L188,22h5.1v14.3h-3.5V30
				c0-0.3,0-0.7,0-1.1s0.1-1.4,0.1-2.9h-0.1l-2.9,10.3H183.1z"/>
			<path class="st0" d="M196.2,36.3V22h3.9v14.3H196.2z"/>
			<path class="st0" d="M213.4,36.3h-11.1v-2.4l6.2-8.8h-6V22h10.8v2.4l-6.2,8.8h6.3V36.3z"/>
			<path class="st0" d="M223.9,36.3h-8.5V22h8.5v3.1h-4.6v2.2h4.3v3.1h-4.3v2.7h4.6V36.3z"/>
			<path class="st1" d="M231.8,36.3V22h3v14.3H231.8z"/>
			<path class="st1" d="M244,36.3h-3V24.5h-3.9V22h10.8v2.5H244V36.3z"/>
			<path class="st1" d="M134.9,53.1c0,2.4-0.6,4.2-1.8,5.4s-2.9,1.9-5,1.9s-3.9-0.6-5-1.9s-1.8-3.1-1.8-5.5s0.6-4.2,1.8-5.4
				s2.9-1.9,5.1-1.9s3.9,0.6,5,1.9S134.9,50.8,134.9,53.1z M124.5,53.1c0,1.6,0.3,2.8,0.9,3.6s1.5,1.2,2.7,1.2
				c2.4,0,3.6-1.6,3.6-4.8c0-3.2-1.2-4.8-3.6-4.8c-1.2,0-2.1,0.4-2.7,1.2S124.5,51.5,124.5,53.1z"/>
			<path class="st1" d="M147.8,50.5c0,1.5-0.5,2.7-1.4,3.5s-2.3,1.2-4.1,1.2h-1.3v5.1h-3V46h4.6c1.7,0,3,0.4,4,1.1
				S147.8,49,147.8,50.5z M140.9,52.7h1c0.9,0,1.6-0.2,2.1-0.6s0.7-0.9,0.7-1.6c0-0.7-0.2-1.2-0.6-1.6s-1-0.5-1.8-0.5h-1.4V52.7z"/>
			<path class="st1" d="M158.7,60.3h-8.2V46h8.2v2.5h-5.2v3.1h4.8v2.5h-4.8v3.7h5.2V60.3z"/>
			<path class="st1" d="M164.7,54.8v5.5h-3V46h4.2c1.9,0,3.4,0.4,4.3,1.1s1.4,1.8,1.4,3.2c0,0.8-0.2,1.6-0.7,2.2s-1.1,1.2-2,1.5
				c2.1,3.2,3.5,5.3,4.2,6.2h-3.4l-3.4-5.5H164.7z M164.7,52.4h1c1,0,1.7-0.2,2.1-0.5s0.7-0.8,0.7-1.5c0-0.7-0.2-1.2-0.7-1.4
				s-1.2-0.4-2.2-0.4h-0.9V52.4z"/>
			<path class="st1" d="M183.6,60.3l-1-3.4h-5.2l-1,3.4h-3.3l5-14.3h3.7l5.1,14.3H183.6z M181.8,54.4c-1-3.1-1.5-4.8-1.6-5.2
				s-0.2-0.7-0.3-1c-0.2,0.8-0.8,2.9-1.8,6.2H181.8z"/>
			<path class="st1" d="M194.2,60.3h-3V48.5h-3.9V46H198v2.5h-3.9V60.3z"/>
			<path class="st1" d="M200.2,60.3V46h3v14.3H200.2z"/>
			<path class="st1" d="M219.8,53.1c0,2.4-0.6,4.2-1.8,5.4s-2.9,1.9-5,1.9s-3.9-0.6-5-1.9s-1.8-3.1-1.8-5.5s0.6-4.2,1.8-5.4
				s2.9-1.9,5.1-1.9s3.9,0.6,5,1.9S219.8,50.8,219.8,53.1z M209.4,53.1c0,1.6,0.3,2.8,0.9,3.6s1.5,1.2,2.7,1.2
				c2.4,0,3.6-1.6,3.6-4.8c0-3.2-1.2-4.8-3.6-4.8c-1.2,0-2.1,0.4-2.7,1.2S209.4,51.5,209.4,53.1z"/>
			<path class="st1" d="M235.4,60.3h-3.8l-6.2-10.8h-0.1c0.1,1.9,0.2,3.3,0.2,4.1v6.7h-2.7V46h3.8l6.2,10.7h0.1
				c-0.1-1.9-0.1-3.2-0.1-3.9V46h2.7V60.3z"/>
			<path class="st1" d="M247.5,56.3c0,1.3-0.5,2.3-1.4,3s-2.2,1.1-3.9,1.1c-1.5,0-2.9-0.3-4-0.9v-2.8c1,0.4,1.8,0.7,2.4,0.9
				s1.3,0.3,1.8,0.3c0.7,0,1.2-0.1,1.5-0.4s0.5-0.6,0.5-1.1c0-0.3-0.1-0.5-0.2-0.7s-0.4-0.4-0.7-0.6s-0.9-0.5-1.9-1
				c-0.9-0.4-1.5-0.8-2-1.2s-0.8-0.8-1-1.3s-0.4-1.1-0.4-1.8c0-1.3,0.4-2.3,1.3-3s2-1.1,3.5-1.1c0.7,0,1.5,0.1,2.1,0.3
				s1.4,0.4,2.1,0.7l-1,2.4c-0.8-0.3-1.4-0.5-1.9-0.7s-1-0.2-1.5-0.2c-0.6,0-1,0.1-1.3,0.4s-0.5,0.6-0.5,1c0,0.3,0.1,0.5,0.2,0.7
				s0.3,0.4,0.6,0.6s0.9,0.5,1.9,1c1.3,0.6,2.2,1.3,2.7,1.9S247.5,55.4,247.5,56.3z"/>
		</g>
	</g>
	<g>
		<g>
			<g>
				<path class="st2" d="M450.4,109.2c0,22.1-17.9,40-40,40c-22.1,0-40-17.9-40-40c0-22.1,17.9-40,40-40
					C432.5,69.2,450.4,87.1,450.4,109.2z"/>
			</g>
		</g>
	</g>
	<path class="st3" d="M444,228.6c0,37.3-30.2,67.5-67.5,67.5S309,265.9,309,228.6c0-37.3,30.2-67.5,67.5-67.5S444,191.3,444,228.6z"
		/>
	<g>
		<path class="st3" d="M619.8,130.3c0,45.5-36.8,82.3-82.3,82.3c-45.5,0-82.3-36.8-82.3-82.3c0-45.5,36.9-82.3,82.3-82.3
			C582.9,48,619.8,84.8,619.8,130.3z"/>
	</g>
	<path class="st4" d="M501.1,240.5c-1.1-2.3-0.6-5,0.9-6.8c-0.7-0.7-1.5-1.4-2.3-2c-0.9-0.7-1.9-1.2-2.9-1.7c-1.3,2-3.6,3.3-6.1,3.1
		c-2.5-0.2-4.5-1.9-5.4-4.1c-2,0.5-4,1.4-5.8,2.7c1.1,2.1,1,4.7-0.5,6.7c-1.5,2-3.9,3-6.2,2.6c-0.6,2.1-0.8,4.2-0.6,6.3
		c2.4,0.1,4.6,1.5,5.6,3.8c1.1,2.3,0.6,4.9-0.9,6.8c0.8,0.8,1.6,1.5,2.5,2.2c0.8,0.6,1.7,1.1,2.6,1.5c1.2-2.1,3.6-3.3,6.2-3.1
		c2.6,0.2,4.7,2,5.5,4.3c2.1-0.5,4-1.4,5.8-2.6c-1.2-2.1-1.2-4.8,0.3-7c1.5-2.1,4.1-3.1,6.5-2.6c0.6-2.1,0.8-4.2,0.6-6.4
		C504.5,244.3,502.1,242.9,501.1,240.5z M495.6,248.7c-1.6,3.4-5.5,4.8-8.9,3.3c-3.4-1.6-4.8-5.5-3.3-8.9c1.6-3.4,5.5-4.8,8.9-3.3
		C495.7,241.4,497.2,245.4,495.6,248.7z"/>
	<path class="st3" d="M459.9,288.7c0,1.3-7.8,2.4-17.4,2.4c-9.6,0-17.4-1.1-17.4-2.4c0-1.3,7.8-2.4,17.4-2.4
		C452.1,286.3,459.9,287.4,459.9,288.7z"/>
	<path class="st3" d="M696,283.8c0,1.9-11.4,3.5-25.5,3.5c-14.1,0-25.5-1.6-25.5-3.5c0-1.9,11.4-3.5,25.5-3.5
		C684.6,280.3,696,281.9,696,283.8z"/>
	<path class="st3" d="M301.3,273.4c0,1.9-11.4,3.5-25.5,3.5c-14.1,0-25.5-1.6-25.5-3.5c0-1.9,11.4-3.5,25.5-3.5
		C289.9,269.9,301.3,271.5,301.3,273.4z"/>
	<path class="st2" d="M503,273.4c0,1-6,1.8-13.4,1.8c-7.4,0-13.4-0.8-13.4-1.8c0-1,6-1.9,13.4-1.9C497,271.6,503,272.4,503,273.4z"
		/>
	<g>
		<path class="st5" d="M460.9,234.4c-0.7-3.7,0.9-7.3,3.8-9.4c-0.8-1.3-1.6-2.5-2.6-3.7c-1.1-1.3-2.3-2.4-3.5-3.4
			c-2.5,2.5-6.3,3.4-9.9,2.1c-3.5-1.3-5.8-4.3-6.3-7.8c-3.1,0-6.2,0.6-9.2,1.7c0.8,3.4-0.3,7.1-3.1,9.5c-2.8,2.4-6.6,2.9-9.9,1.5
			c-1.6,2.7-2.7,5.7-3.2,8.8c3.3,1,6,3.8,6.7,7.4c0.7,3.7-0.9,7.3-3.7,9.4c0.8,1.4,1.7,2.8,2.8,4c1,1.2,2.1,2.2,3.2,3.2
			c2.5-2.5,6.4-3.5,9.9-2.2c3.6,1.3,6,4.5,6.3,8.1c3.1,0,6.3-0.5,9.3-1.6c-1-3.5,0.1-7.4,3-9.9c2.9-2.5,6.9-2.9,10.2-1.4
			c1.6-2.8,2.6-5.8,3.1-8.9C464.4,241,461.6,238.2,460.9,234.4z"/>
		<g id="XMLID_2_">
			<g>
				<path class="st6" d="M448.7,230.3c4.2,3.5,4.9,9.7,1.4,13.9s-9.7,4.9-13.9,1.4c-4.3-3.5-4.9-9.7-1.5-13.9
					C438.2,227.5,444.4,226.8,448.7,230.3z"/>
			</g>
		</g>
	</g>
	<g>
		<g>
			<path class="st7" d="M521,196.3c-0.1,0.1,2.4,3.4,2.8,4c0.6,0.9,1,1.9,1.5,2.9c0.5-0.6,1.1-1.2,1.7-1.9c0.7-0.9,0.7-1,0.2-1.9
				c-0.2-0.3-0.4-0.7-0.6-1.1c-0.2-0.3,1.1-3,0.2-3c-0.9,0-0.8,1.7-1.1,1.1c-0.5-1.3-1.5-3.6-1.8-3.6c-0.5,0,0.7,2.7,0.2,3.1
				c-0.5-0.5-1.3-2.8-1.9-2.5c-0.6,0.3,0.8,2.5,1,3.2c-0.2-0.4-1.6-2.5-1.7-2.2c-0.1,0.3,0.9,2.6,1.2,3c-0.1-0.1-0.3-0.3-0.5-0.5
				C522.2,197.3,521.1,196.2,521,196.3z"/>
			<path class="st0" d="M553.3,209c2,1.9,2.7,4.5-1.2,6c-3.9,1.5-12.6,4-19.2-2.1c-6.6-6.2-8-10.6-8-10.6l2.7-2.2
				c0,0,4.6,7.5,11.7,9.6C546.3,211.9,551,206.9,553.3,209z"/>
			<path class="st8" d="M558.2,261.7l1.9,38.2c0,0-7.5,1.9-8.9,2.1c-1.4,0.3,3.9-3.1,4.5-4.7c0.6-1.6,1.6-2.2,0.7-6.1
				c-0.8-3.9-7.2-43.3-7.2-43.3h8L558.2,261.7z"/>
			<path class="st8" d="M554.8,298.6c2.8,0.9,4.5,0.3,5.3-0.3l0.1,1.5c0,0-7.5,1.9-8.9,2.1C550.2,302.2,553.1,300.2,554.8,298.6z"/>
			<path class="st8" d="M548.6,262.6l-5.9,37.7c0,0-7.7,0.1-9.1,0c-1.4-0.1,4.4-2.1,5.3-3.5c0.9-1.4,2-1.8,2-5.8
				c0-4-0.1-43.5-0.1-43.5l10.1-1.3L548.6,262.6z"/>
			<path class="st8" d="M537.7,297.8c2.5,1.5,4.3,1.3,5.3,1l-0.2,1.5c0,0-7.7,0.1-9.1,0C532.5,300.3,535.7,299,537.7,297.8z"/>
			<path class="st9" d="M551.2,237.4c-0.6,2.6,0.8,4.5,1.3,6.9c0.5,2.3,0.5,4.9,0.4,7.2c-0.3,5.2-1.6,10-3.2,14.8
				c-1.6,4.8-4.9,28.3-4.9,28.3s-4.2-0.8-5.7-0.4c0.3-5.3-1-26.6-1.1-32c-0.1-4.7,0.7-9.6,1-14.3c0.3-4.5,1-8.8,4.4-11.9
				L551.2,237.4z"/>
			<path class="st9" d="M556.4,236.8c-0.1,2.6,2.1,3.4,3.1,5.6c1,2.1,1.1,5.5,1.4,7.8c0.7,5.1,0.5,10.2-0.1,15.2
				c-0.6,5-0.1,24.6,0,29.2c-1.5,0.4-3.3-0.3-4.6,0.4c-0.8-5.3-4.2-22.7-5.4-28c-1-4.6-4.3-13.4-4.9-18.1c-0.6-4.5-1.8-7.4,0.9-11.2
				L556.4,236.8z"/>
			<path class="st6" d="M558.4,229.7c0,0.1,0,0.1,0.1,0.2c-0.9,0.2-3.3,0.7-6.1,0.3c-1.9-0.3-4-0.9-5.9-2.4l0.1-0.2
				C551.2,231.1,557,230,558.4,229.7z"/>
			<path class="st0" d="M543.3,221l-6.3,19.5c0,0,1.9,5.9,10.8,5.4s14.2-0.8,14.2-0.8s-1.7-13.7,1.5-20c3.2-6.3,2.7-10,1.4-11.9
				C563.6,211.3,547.5,215,543.3,221z"/>
			<path class="st10" d="M550.3,210.3c-0.3,1.3,2.3,4.3,3.4,4.9c1.9,1.1,4.6,0.6,6.6-0.1c1.1-0.4,3.4-0.3,3.8-1.4
				c0.7-1.8-2.3-2.4-3.2-3c-1.4-0.9-1.8-3.5-1.6-4.9c-1.4-0.3-2.8-0.6-4.2-0.7c-0.2,1.7-1.3,3.2-2.7,4
				C551.8,209.3,550.4,209.7,550.3,210.3z"/>
			<polygon class="st6" points="552.1,208.3 553.8,207.8 554.3,210 559.4,208.8 560.5,210.6 546.7,231.8 551.6,209.8 			"/>
			<path class="st0" d="M559.9,211.5c0.5-0.5,0.7-0.9,0.7-0.9c0.1-0.3,4.4,1.7,4.7,2c0.2,0.1,0.3,0.3,0.4,0.4c1.3,1.3,1,2.1,0.6,4
				c-1,4.7-4,8.7-5.4,13.2c-0.8,2.5-2,5-1.9,7.7c0.1,2.5,1.3,4.2-1.6,5.4c-3.2,1.3-12.6-0.8-15.4-2.5c-2-1.2-1.6-2.3-1.7-4.6
				c-0.4-6,0.8-11.1,3.2-16.7c1.2-2.8,2.3-6.3,4.1-8.8c0.8-1.2,0.6-1.4,2.1-1.8c0.1,0,2.5,0.1,2.5,0.1c0,0.1-3.4,16.3-3.4,16.3
				s8.3-11.9,9.4-12.5C558.4,212.8,559.2,212.1,559.9,211.5z"/>
			<path class="st11" d="M554.2,207.3c0.5-0.7,0.8-1.4,0.8-2.3c1.4,0.1,2.8,0.4,4.2,0.7c0,0.1,0,0.3,0,0.4
				C557.8,207.7,556.1,207.9,554.2,207.3z"/>
			<path class="st10" d="M554.2,205.2c-4.1-2.4-2-7.5,0.7-10c1.4-1.3,3.5-2.7,5.5-2.2c2,0.5,5.1,2.3,4.8,4.6
				c-0.1,1.2-1.3,2.1-1.9,3.1c-0.8,1.5-1.5,3-2.8,4.2C558.7,206.7,556.4,206.5,554.2,205.2z"/>
			<path class="st8" d="M560.5,202.8c1,0.4,1.7-0.3,1.7-1.3c0-1.7-1.1-0.9-1.9-1.2c-0.6-0.2,0,0,0,0l0.3-2.1c0,0-3.7-0.7-2.5-2.1
				c-1.2-0.1-4.5-0.4-4.4-2.2c0.1-3.4,6-1.9,7.6-1.1c1.6,0.7,3.5,2.2,4,3.9c1.1,3-2.2,9.4-5.9,8.6L560.5,202.8z"/>
		</g>
		<path class="st6" d="M553.2,203.1c-0.8-0.6-0.9-1.8-0.2-2.5l2.8,2.3C555.1,203.7,554,203.8,553.2,203.1z"/>
	</g>
	<g>
		<path class="st5" d="M601.4,137c0.3-1.7,0.5-3.4,0.6-5.2c0-2-0.1-3.9-0.4-5.7c-4.1,0.2-8.1-1.9-10.2-5.8
			c-2.1-3.8-1.7-8.3,0.6-11.6c-2.7-2.4-5.9-4.3-9.3-5.7c-1.9,3.5-5.7,5.9-10.1,5.8c-4.3-0.1-8-2.7-9.7-6.3c-3.5,1.1-6.8,2.9-9.6,5.2
			c2.1,3.5,2.3,7.9,0,11.6c-2.3,3.7-6.4,5.6-10.5,5.3c-0.4,1.8-0.6,3.7-0.7,5.7c0,1.8,0.1,3.5,0.3,5.2c4.1-0.2,8.2,1.9,10.3,5.8
			c2.1,3.9,1.7,8.6-0.8,11.9c2.7,2.5,5.9,4.4,9.3,5.8c1.9-3.8,5.8-6.3,10.3-6.2c4.5,0.1,8.3,2.9,9.9,6.7c3.5-1.2,6.8-3,9.6-5.3
			c-2.3-3.5-2.5-8.1-0.2-11.9C593.1,138.5,597.2,136.6,601.4,137z"/>
		<g id="XMLID_3_">
			<g>
				<path class="st6" d="M581.8,129.5c0.9,5.4-2.8,10.6-8.3,11.4c-5.4,0.9-10.6-2.8-11.4-8.3c-0.9-5.4,2.8-10.6,8.3-11.4
					S581,124,581.8,129.5z"/>
			</g>
		</g>
	</g>
	<g>
		<path class="st3" d="M352.1,302.3c0,1.5-15.5,2.7-34.7,2.7c-19.2,0-34.7-1.2-34.7-2.7c0-1.5,15.5-2.7,34.7-2.7
			C336.5,299.5,352.1,300.7,352.1,302.3z"/>
		<path class="st13" d="M350.1,196.1c-0.2,0.8-1.2,1.4-1.4,2.2c-0.4,1.2-0.9,2.7-1.1,3.9c-0.8-0.5-0.8-1.1-1.6-1.6
			c-1.1-0.7-1.1-0.8-0.8-2c0.1-0.6,0.3-1.2,0.4-1.9c0-0.2-0.8-1.2-0.7-2.6c0.1-1.4,0.8,1.6,0.9,1.1c0.2-1.6,0.6-4.8,0.7-5
			c0.1-0.3,0.2,3.5,0.8,3.7c0.3-0.6,0.3-4.6,0.6-4.2c0.3,0.3,0.5,3.9,0.6,4.7c0.1-0.4,0.5-4.2,0.8-3.8c0.4,0.5,0.1,3.9,0,4.5
			c0.1-0.2,1.1-3.1,1.1-2.9C350.6,192.5,350.2,195.7,350.1,196.1z"/>
		<path class="st14" d="M322.9,213.2c-1.4,2.3-1.4,5,2.9,5.3c4.3,0.3,12.6-2,14.1-2.6c5.2-2.2,8.8-17.2,8.8-17.2l-3.2-1.3
			c0,0-1.9,11.5-7,14.1C333.4,214,324.6,210.5,322.9,213.2z"/>
		<path class="st15" d="M417.4,200.8c1.1-3.6,4.2-6,7.6-6.6c0.3-2.1,0.3-4.3,0.3-6.4c-3.4-0.9-6.2-3.6-7-7.2
			c-0.8-3.7,0.6-7.3,3.3-9.5c-0.9-2-1.8-3.9-3-5.7c-3.4,0.9-7.2,0-9.7-2.8c-2.5-2.8-3.1-6.6-1.9-9.9c-1.7-1.3-3.5-2.4-5.4-3.5
			c-2.5,2.5-6.2,3.6-9.8,2.5c-3.6-1.1-6-4.2-6.6-7.6c-2.1-0.3-4.3-0.3-6.4-0.3c-0.9,3.4-3.6,6.2-7.2,7c-3.7,0.8-7.3-0.6-9.5-3.3
			c-2,0.9-3.9,1.8-5.7,3c0.9,3.4,0,7.2-2.8,9.7c-2.8,2.5-6.6,3.1-9.9,1.9c-1.3,1.7-2.4,3.5-3.4,5.4c2.5,2.5,3.6,6.2,2.5,9.8
			c-1.1,3.6-4.2,6-7.6,6.6c-0.3,2.1-0.3,4.3-0.3,6.4c3.4,0.9,6.2,3.6,7,7.2c0.8,3.7-0.6,7.3-3.3,9.5c0.8,2,1.8,3.9,3,5.7
			c3.4-0.9,7.2,0,9.7,2.8c2.5,2.8,3.1,6.6,1.9,9.9c1.7,1.3,3.5,2.4,5.4,3.5c2.5-2.5,6.2-3.6,9.8-2.5c3.6,1.1,6,4.2,6.6,7.6
			c2.1,0.3,4.3,0.3,6.4,0.3c0.9-3.4,3.6-6.2,7.2-7c3.7-0.8,7.3,0.6,9.5,3.3c2-0.8,3.9-1.8,5.7-3c-0.9-3.4,0-7.2,2.8-9.7
			c2.8-2.5,6.6-3.1,9.9-1.9c1.3-1.7,2.4-3.5,3.4-5.4C417.4,208.1,416.3,204.4,417.4,200.8z"/>
		<g id="XMLID_1_">
			<g>
				<path class="st6" d="M386.8,167.8c11.7,3.7,18.2,16.2,14.5,27.8c-3.7,11.7-16.2,18.1-27.8,14.4c-11.7-3.7-18.1-16.2-14.5-27.8
					C362.7,170.6,375.1,164.1,386.8,167.8z"/>
			</g>
		</g>
		<g>
			<path class="st13" d="M315.5,243.3c0,0-2.9,22.2-5.1,27.3c-2.2,5-3.9,5.4-7.6,9.9c-3.7,4.5-4.1,13.1-4.1,13.1l0.1,0l-0.4,2.6
				l-0.7,3.3l6.8,0.2c0,0,0.8-0.4-2.1-1.5c-1.4-0.6-1.9-0.7-2.1-0.8c0,0,1.4-3.2,1.6-3.8c1.9-4.3,8.8-13.1,13.1-17.9
				c4.2-4.6,11.2-19.8,11.2-19.8C331.2,244.5,315.5,243.3,315.5,243.3z"/>
			<path class="st13" d="M343.2,298.2c-2.9-1.2-2.3-1.1-2.3-1.1l0.1-2.7l1.8-24.7L330,244.9c-1-6-13.2-10.8-13.6-0.6
				c-0.4,10.2,7.6,13.2,9.4,15.2c1.7,2,10.4,10.9,10.4,10.9s1,0.7-0.1,4.1c-0.9,4.7,2.1,20.6,2.1,20.6c0.2,0.1,0.1,2.5,0.1,2.5
				l-0.5,2.2l7.4,0.4C345.3,300.1,346.1,299.3,343.2,298.2z"/>
			<path class="st13" d="M324.2,213.6c-0.3,0-4.2,2.3-4.2,2.3s5.2-3.6,5.6-7.8c0.4-4.2,2.1-2.6,3.8-1c1.1,0.9,0.4,3.8,0.6,5.2
				c0.2,1.1,0.9,2.5,0.6,3.6c-0.6,2.2-2-0.6-3-1.3C326.3,213.7,325.3,213.8,324.2,213.6z"/>
			<path class="st0" d="M330,212.3c-2.3-2.2-6.6-0.6-8.4,1.4c-2.7,2.9-2.8,8.6-3.3,12.5c-0.4,3.3,0.8,6.9-1,9.9
				c-0.9,1.6-2.3,6.5-3.4,8c-1.4,2,3.9,2.3,6.1,2.9c3.9,1,11.8,0.4,11.8,0.4s-1.3-6-1.5-7.8c-0.3-3,1.2-5.8,3.1-9.7
				c1-2.1,2.3-2.9,1.7-5.2c-0.6-2.2-1.6-4.3-2.6-6.3c-0.7-1.5-1.3-4.7-2.4-5.9C330.2,212.4,330.1,212.4,330,212.3z"/>
			<path class="st13" d="M325.8,209.4c-1.8-2.4-2.9-6.9-1.8-9.7c1.1-2.9,3.2-3.3,5.8-1.6c2.6,1.7,6.5,9.4,2.1,10.6
				c-1.1,0.3-2.4-0.1-3.4,0.5L325.8,209.4z"/>
			<path class="st8" d="M324.7,195.8c3.2-1.4,7.9-1.6,8.5,1.9c0.5,2.9-3.4,4-5.5,3.7l0,1.2c0,0-1.8-0.3-1.4,1.2
				c0.2,0.9,1.1,1.1,1.9,0.8c-0.8,0.3-1.1,1.6-2.4,1.8c-1.6,0.3-2.4-0.5-3.2-1.7c-1.3-2.1-2.1-4.8-0.6-6.9
				C322.5,197,323.5,196.3,324.7,195.8z"/>
			<polygon class="st13" points="332.8,201.8 334.9,204.4 333,205.3 			"/>
			<path class="st16" d="M297.6,299.6l6.8,0.2c0,0,0.8-0.4-2.1-1.5c-2.1,1.1-3.9,0.5-4.5,0.2L297.6,299.6z"/>
			<path class="st16" d="M343.2,298.2c-0.1,0-0.2-0.1-0.3-0.1c-2,1.3-3.8,0.9-4.8,0.6l-0.3,1.2l7.4,0.4
				C345.3,300.1,346.1,299.3,343.2,298.2z"/>
			<path class="st8" d="M327.2,195.3c0,0-7.6-0.5-7.4,7.1c0,0-5.7,0.2-7.6,8c-1.8,7.9,1.1,10.7,4.5,8.9c3.4-1.8,3.2-3.4,3.2-3.4
				s2.9,1.4,6.6-1c3.7-2.4-1.4-7.7-1.4-7.7l3-2.7c0,0-6.5,0.4-3-3.4C328.7,197.3,327.2,195.3,327.2,195.3z"/>
		</g>
		<path class="st13" d="M355,206.9c-1.1,1.4-1.5,1.3-2,2.1c-0.7,1-1.7,2.3-2.2,3.4c-0.6-0.7-0.4-1.3-1-2c-0.8-1-0.8-1.1-0.2-2.2
			c0.3-0.5,0.6-1.1,0.9-1.7c0.1-0.2-0.4-1.4,0.1-2.7c0.5-1.3,0.3,1.8,0.5,1.3c0.7-1.5,2-4.4,2.2-4.6c0.2-0.2-0.9,3.3-0.3,3.7
			c0.5-0.5,1.6-4.3,1.8-3.8c0.2,0.4-0.6,3.9-0.8,4.7c0.2-0.4,1.7-3.9,1.9-3.4c0.2,0.5-1,3.8-1.3,4.3c0.1-0.2,1.9-2.7,1.9-2.5
			C356.5,203.9,356.1,205.5,355,206.9z"/>
		<path class="st14" d="M324,215.7c-2.1,1.8-2.8,4.4,1.2,5.9c4,1.5,12.6,1.8,14.3,1.6c5.6-0.6,13.4-13.9,13.4-13.9l-2.7-2.1
			c0,0-5.1,9.3-10.7,10.3C333.9,218.4,326.4,213.6,324,215.7z"/>
		<path class="st0" d="M330.8,240.8l14.1,26.1l4.2,25.8c0,0-40.4,3.2-53.5-1.8c0,0,15.7-33.9,15.7-38.4c0-4.5,1.5-11.2,6.8-17.5
			l12.2,2.3L330.8,240.8z"/>
	</g>
	<polyline class="st17" points="303.5,101.3 303.5,133.3 436,133.3 	"/>
	<line class="st17" x1="606.3" y1="132.5" x2="714.2" y2="132.5"/>
	<g>
		<path class="st15" d="M191.2,173.2c-0.5-1.8-1.9-2.6-3.7-2.5c-4,0.1-8.1,0-12.1,0c-0.2,0-0.4,0-0.6,0c-1.1,0-2.2,0-3.3,0
			c-2.6,0-5.3,0-7.9,0c-0.9,0-1.7,0-2.6,0c-1.1,0-2.2,0-3.3,0c-1.6,0-3.2,0-4.8,0c-2.7,0-5.5,0-8.2,0c-1.8,0-2.7,0.6-3.4,2.3
			c0,0.1-0.1,0.1-0.1,0.1c0,3.5,0,7,0,10.5c0,0.5,0,1,0,1.5c0.3,0.5,0.5,1.1,0.9,1.5c0.2,0.1,0.4,0.2,0.4,0.5c0.1,0,0.2,0.1,0.4,0.1
			c2.4,1.8,5.1,2.9,7.9,3.8c2.1,0.6,4.2,1.1,6.4,1.4c1.4,0.2,2.7,0.3,4.1,0.4c0.7,0,1.4,0.1,2,0.1c0-0.1,0-0.1,0-0.2
			c0-0.5,0-1,0-1.6c0-0.1,0-0.3,0-0.4c0-1,0.3-1.3,1.3-1.3c1.1,0,2.2,0,3.3,0c1,0,1.3,0.3,1.3,1.3c0,0.1,0,0.3,0,0.4
			c0,0.5,0,1,0,1.6c0,0.1,0,0.1,0,0.2c2.5,0,5-0.3,7.5-0.8c2.8-0.5,5.5-1.2,8.1-2.3c1.7-0.7,3.3-1.5,4.7-2.6
			c0.1-0.1,0.2-0.2,0.4-0.2c0.5-0.6,1-1.2,1.3-2c0-0.5,0-1,0-1.5C191.2,180.2,191.2,176.7,191.2,173.2
			C191.2,173.2,191.2,173.2,191.2,173.2z"/>
		<path class="st5" d="M174.8,166.6c0-0.9-0.3-1.5-1.1-1.9c-0.3-0.2-0.6-0.3-0.9-0.5c-3-1.4-6.1-1.8-9.4-1.2
			c-1.7,0.3-3.4,0.8-4.9,1.8c-0.4,0.3-0.8,0.6-0.8,1.1c-0.1,1-0.1,2,0,3c0,0.6,0,1.2,0,1.7c1.1,0,2.2,0,3.3,0c0-0.6,0-1.2,0-1.7
			c0-0.4,0-0.8,0-1.2c0-0.4,0.1-0.5,0.5-0.7c1.1-0.5,2.2-0.8,3.4-0.9c2.2-0.2,4.3,0,6.3,0.9c0.3,0.1,0.4,0.3,0.4,0.6
			c0,0.4,0,0.8,0,1.3c0,0.6,0,1.2,0,1.7c1.1,0,2.2,0,3.3,0c0-0.6,0-1.2,0-1.8C174.7,168.1,174.7,167.4,174.8,166.6z"/>
		<path class="st5" d="M189.9,189.4c0-0.2,0-0.4,0-0.5c0-0.6,0-1.2,0-1.8c-0.2,0-0.3,0.1-0.4,0.2c-1.5,1.1-3.1,1.9-4.7,2.6
			c-2.6,1.1-5.3,1.8-8.1,2.3c-2.5,0.4-5,0.7-7.5,0.8c0,0.6,0,1.1,0,1.7l0,0c-0.4,1.2-1.1,2.1-2.4,2.3c-1.6,0.3-2.8-0.5-3.4-2.2
			c-0.1-0.6,0-1.2-0.1-1.8c-0.7,0-1.4,0-2-0.1c-1.4-0.1-2.7-0.2-4.1-0.4c-2.2-0.3-4.3-0.8-6.4-1.4c-2.8-0.9-5.5-2-7.9-3.8
			c-0.1-0.1-0.2-0.1-0.4-0.1c0,0.6,0,1.2,0,1.8c0,0.2,0,0.4,0,0.5c0,4.5,0,9.1,0,13.6c0,2.2,1.3,3.5,3.5,3.5c13.5,0,26.9,0,40.4,0
			c2.2,0,3.5-1.3,3.5-3.5C189.9,198.5,189.9,193.9,189.9,189.4z"/>
		<path class="st6" d="M169.2,191.2c0-0.1,0-0.3,0-0.4c0-1-0.3-1.3-1.3-1.3c-1.1,0-2.2,0-3.3,0c-1,0-1.3,0.3-1.3,1.3
			c0,0.1,0,0.3,0,0.4c0,0.5,0,1,0,1.6c0,0.1,0,0.1,0,0.2c0.1,0.6,0,1.2,0.1,1.8c0.6,1.6,1.8,2.4,3.4,2.2c1.3-0.2,2-1.1,2.4-2.3
			c0-0.6,0-1.1,0-1.7c0-0.1,0-0.1,0-0.2C169.1,192.2,169.2,191.7,169.2,191.2z"/>
	</g>
	<g>
		<path class="st15" d="M764.8,142.5c0,1.1,0,2.2,0,3.4c-2.7,0-5.3,0-7.9,0c0-4.4,0-8.8,0-13.3c0-1.5-0.9-2.5-2.2-2.5
			s-2.2,1-2.2,2.5c0,4.4,0,8.8,0,13.3c-2.6,0-5.2,0-7.9,0c0-1.1,0-2.2,0-3.4c0-4.9,0-9.7,0-14.6c0-2.6,0-5.3,0-7.9c1.5,0,3,0,4.5,0
			c0.2,3.3,2.6,5.6,5.7,5.6c3,0,5.4-2.4,5.6-5.6c1.5,0,3,0,4.5,0c0,2.6,0,5.3,0,7.9C764.9,132.8,764.8,137.7,764.8,142.5z"/>
		<path class="st5" d="M764.8,120c-1.5,0-3,0-4.5,0c-0.2-3.2-2.5-5.6-5.6-5.6c-3.1,0-5.5,2.3-5.7,5.6c-1.5,0-3,0-4.5,0
			c-0.1-3.2,0.7-6.1,2-9c1.4-3.2,3.4-6.1,5.7-8.7c0.6-0.7,1.3-1.4,1.9-2c0.3-0.3,0.5-0.4,0.9,0c2.8,2.6,5.1,5.5,6.9,8.9
			c1.4,2.8,2.4,5.8,2.6,8.9C764.8,118.7,764.8,119.4,764.8,120z"/>
		<path class="st15" d="M754.6,165c-1.9-1.4-3.6-3-5-4.9c-1.3-1.8-2.2-3.7-2.4-5.9c0-1.1,0.1-2.2,0.5-3.3c0.1-0.3,0.3-0.5,0.7-0.5
			c1,0,1.9,0,2.9,0c0,1.8,0,3.6,0.6,5.3c0.4,1.3,1,2.4,2.1,3.2c0.6,0.4,1,0.4,1.4-0.1c1.2-1.1,1.9-2.4,2.4-4c0.4-1.5,0.5-3,0.3-4.5
			c1,0,2,0,2.9,0c0.4,0,0.5,0.2,0.7,0.5c0.5,1.1,0.6,2.2,0.5,3.3c-0.6,3.5-2.6,6.2-5.1,8.6c-0.8,0.8-1.6,1.5-2.4,2.2
			C754.7,165,754.7,165,754.6,165z"/>
		<path class="st5" d="M744.6,128c0,4.9,0,9.7,0,14.6c-3,1.5-5.9,2.9-9,4.4c0-2.1,0.1-4.1,0-6c-0.1-1.3,0.3-2.3,1.2-3.3
			c2.5-3,4.9-6.1,7.4-9.2C744.3,128.3,744.4,128.1,744.6,128z"/>
		<path class="st5" d="M764.8,142.5c0-4.9,0-9.7,0-14.6c1.9,2.3,3.7,4.6,5.6,6.9c1,1.3,2.1,2.6,3.1,3.9c0.2,0.2,0.3,0.4,0.3,0.7
			c0,2.4,0,4.8,0,7.2c0,0.1,0,0.1-0.1,0.2C770.8,145.5,767.8,144,764.8,142.5z"/>
		<path class="st5" d="M752.5,145.9c0-4.4,0-8.8,0-13.3c0-1.5,0.9-2.5,2.2-2.5s2.2,1,2.2,2.5c0,4.4,0,8.8,0,13.3c0,1.5,0,3,0,4.5
			c-0.2,1.4-1.1,2.3-2.3,2.3c-1.2,0-2.1-0.9-2.2-2.3C752.5,148.9,752.5,147.4,752.5,145.9z"/>
		<path class="st6" d="M752.4,150.4c0.2,1.4,1,2.2,2.2,2.3c1.2,0,2.1-0.8,2.3-2.3c0.4,0,0.7,0,1.1,0c0.2,1.5,0.1,3-0.3,4.5
			c-0.4,1.5-1.2,2.9-2.4,4c-0.5,0.4-0.9,0.5-1.4,0.1c-1.1-0.8-1.7-2-2.1-3.2c-0.6-1.7-0.6-3.5-0.6-5.3
			C751.7,150.4,752.1,150.4,752.4,150.4z"/>
		<path class="st6" d="M749.1,120c0.2-3.3,2.6-5.6,5.7-5.6c3,0,5.4,2.4,5.6,5.6c-0.2,3.2-2.5,5.6-5.6,5.6
			C751.6,125.7,749.2,123.3,749.1,120z M754.7,117.8c-1.2,0-2.2,1-2.2,2.2c0,1.3,1,2.3,2.2,2.3c1.2,0,2.2-1,2.2-2.2
			C757,118.8,756,117.8,754.7,117.8z"/>
		<path class="st15" d="M754.7,117.8c1.3,0,2.3,1,2.3,2.3c0,1.2-1,2.2-2.2,2.2c-1.3,0-2.3-1-2.2-2.3
			C752.5,118.7,753.5,117.8,754.7,117.8z"/>
	</g>
	<g>
		<g>
			<path class="st15" d="M327,66.1c0.9,0.4,1.4,1.1,1.8,2c0,0.4,0,0.7,0,1.1c-0.1,0.1-0.1,0.2-0.1,0.3c-0.4,1.1-1.5,1.8-2.6,1.7
				c-1.2-0.1-2.1-1-2.4-2.2c-0.2-1.1,0.4-2.2,1.5-2.8c0.1,0,0.2-0.1,0.3-0.1C325.9,66,326.5,66,327,66.1z"/>
			<path class="st15" d="M280.5,39.2c-0.9-0.3-1.4-1-1.8-1.9c0-0.4,0-0.8,0-1.2c0.1-0.1,0.1-0.2,0.2-0.3c0.4-1.1,1.5-1.8,2.6-1.7
				c1.2,0.1,2.2,1,2.4,2.2c0.2,1.1-0.4,2.2-1.4,2.8c-0.1,0.1-0.2,0.1-0.3,0.2C281.6,39.3,281,39.3,280.5,39.2z"/>
			<path class="st15" d="M328.8,45c-0.3,0.9-0.9,1.6-1.8,1.9c-0.5,0.1-1.1,0.1-1.6,0c-1-0.5-1.7-1.2-1.8-2.3
				c-0.1-1.3,0.8-2.5,2.1-2.7c1.3-0.3,2.6,0.5,3,1.8c0,0.1,0,0.2,0.1,0.2C328.8,44.3,328.8,44.7,328.8,45z"/>
			<path class="st15" d="M315.8,75.6c1.9,0.8,2.1,2.7,1.3,3.9c-0.4,0.6-1,0.9-1.6,1.1c-0.4,0-0.7,0-1.1,0c0-0.1-0.2-0.1-0.2-0.1
				c-1.1-0.4-1.8-1.3-1.8-2.4c0-1.1,0.5-1.9,1.5-2.4c0.1,0,0.1-0.1,0.2-0.1C314.7,75.5,315.3,75.4,315.8,75.6z"/>
			<path class="st15" d="M278.7,64.6c0.1,0,0.1-0.2,0.1-0.2c0.4-1,1.2-1.7,2.3-1.7c1.2-0.1,2,0.5,2.5,1.5c0,0.1,0.1,0.1,0.1,0.2
				c0.2,0.6,0.2,1.1,0,1.7c-0.4,0.9-1,1.5-2,1.7c-1.3,0.3-2.4-0.4-2.9-1.6c0-0.1,0-0.3-0.2-0.3C278.7,65.3,278.7,64.9,278.7,64.6z"
				/>
			<path class="st15" d="M318.4,54.1c0.1,1.3,0.1,2.6-0.1,3.9c-0.2,0.9-0.5,1.9-0.7,2.8c-0.3,0.6-0.5,1.1-0.8,1.7
				c-0.9,1.6-2,3.1-3.5,4.3c-0.6,0.5-1.2,0.9-1.8,1.3c-0.5,0.3-1.1,0.6-1.6,0.9c-1.7,0.7-3.4,1.1-5.2,1.3c-0.6,0-1.2,0-1.8,0
				c-2.3-0.2-4.5-0.8-6.6-2c-1.2-0.7-2.2-1.6-3.2-2.5c-0.4-0.5-0.9-1-1.3-1.5c-1.1-1.6-1.9-3.3-2.4-5.2c-0.9-4.2-0.2-8.1,2.2-11.7
				c0.1-0.1,0.1-0.2,0.1-0.3c0.4-0.5,0.9-1,1.3-1.5c1.6-1.5,3.3-2.8,5.4-3.6c1.4-0.5,2.9-0.8,4.4-1c0.6,0,1.2,0,1.8,0
				c1.8,0.1,3.5,0.6,5.2,1.3c0.5,0.3,1.1,0.6,1.6,0.9c2.3,1.5,4.1,3.4,5.3,5.8c0.6,1.1,1,2.2,1.3,3.4
				C318.2,52.9,318.3,53.5,318.4,54.1z"/>
			<path class="st5" d="M293.1,45.5c-0.4,0.5-0.9,1-1.3,1.5c-1.1,0-2.3,0-3.4,0c-3.4,0-6.2-1.9-7.5-5c-0.4-0.9-0.5-1.9-0.5-2.9
				c0.6,0.1,1.1,0.1,1.7,0c0.1,3,1.9,5.3,4.7,6c0.4,0.1,0.8,0.1,1.2,0.1c1.4,0,2.8,0,4.2,0C292.6,45.3,292.9,45.4,293.1,45.5z"/>
			<path class="st5" d="M304.6,41c-0.6,0-1.2,0-1.8,0c0-1.7,0-3.4,0-5.1c0-0.9-0.6-1.9-1.9-1.9c-1.4,0-2.9,0-4.3,0
				c0.1-0.6,0.1-1.1,0-1.7c1.5,0,3,0,4.4,0c1.9,0,3.5,1.5,3.5,3.5C304.6,37.6,304.6,39.3,304.6,41z"/>
			<path class="st5" d="M318.4,54.1c-0.1-0.6-0.2-1.2-0.3-1.8c2-0.2,4.1-0.1,6.1-0.1c0.8,0,1.2-0.3,1.2-1.2c0-1.4,0-2.7,0-4.1
				c0.5,0.1,1.1,0.1,1.6,0c0,1.6,0,3.2,0,4.7c0,1.2-1.2,2.2-2.4,2.2c-1.4,0-2.9,0-4.3,0C319.7,53.9,319,53.9,318.4,54.1z"/>
			<path class="st15" d="M316.7,35.7c-1.5-0.8-2.1-2.1-1.5-3.5c0.5-1.1,1.5-1.7,2.7-1.5c1.1,0.1,2,1,2.2,2c0.2,1.1-0.3,2.3-1.3,2.8
				c-0.1,0.1-0.3,0.1-0.4,0.2C317.8,35.9,317.3,35.9,316.7,35.7z"/>
			<path class="st15" d="M296.7,32.4c0.1,0.6,0.1,1.1,0,1.7c-0.7,1.7-2.3,2-3.4,1.6c-1.1-0.4-1.8-1.5-1.7-2.5
				c0.1-1.2,0.9-2.1,2.1-2.4c1.1-0.2,2.2,0.3,2.8,1.3C296.6,32.1,296.7,32.3,296.7,32.4z"/>
			<path class="st5" d="M316.7,35.7c0.6,0.2,1.1,0.1,1.7,0c0,1,0,1.9,0,2.9c0,1.3-1.2,2.4-2.5,2.4c-0.8,0-1.7,0-2.5,0
				c-1,0-1.6,0.5-1.8,1.6c0,0.2-0.1,0.4-0.1,0.6c-0.5-0.3-1.1-0.6-1.6-0.9c0.3-1.9,1.7-3,3.6-3c0.8,0,1.5,0,2.3,0c0.7,0,1-0.3,1-1
				C316.7,37.4,316.7,36.6,316.7,35.7z"/>
			<path class="st5" d="M302.9,70.3c0.6,0,1.2,0,1.8,0c0,3-2.2,5.5-5.2,6c-0.4,0.1-0.7,0.1-1.1,0.1c-2.3,0-4.5,0-6.8,0
				c0.1-0.6,0.2-1.2,0-1.8c2.3,0,4.7,0,7,0C301,74.6,302.9,72.7,302.9,70.3z"/>
			<path class="st15" d="M291.5,74.6c0.2,0.6,0.2,1.2,0,1.8c-0.7,1.7-2.5,2-3.7,1.4c-1-0.5-1.5-1.6-1.3-2.7c0.2-1,1-1.9,2-2.1
				c1.1-0.2,2.2,0.3,2.8,1.3C291.4,74.4,291.5,74.5,291.5,74.6z"/>
			<path class="st5" d="M309.8,69c0.5-0.3,1.1-0.6,1.6-0.9c0.1,0.7,0.1,1.4,0.8,1.9c0.3,0.2,0.6,0.3,0.9,0.3
				c1.5,0.1,2.6,1.1,2.6,2.6c0,0.9,0,1.8,0,2.7c-0.6-0.2-1.1-0.1-1.7,0c0-0.8,0-1.7,0-2.5c0-0.7-0.3-1-1-1.1
				C311.4,71.9,310.1,70.8,309.8,69z"/>
			<path class="st5" d="M291.8,64.3c0.4,0.5,0.9,1,1.3,1.5c-0.2,0.1-0.4,0.2-0.6,0.2c-2.9,0-5.8,0-8.7,0c0.1-0.6,0.2-1.1,0-1.7
				c2.3,0,4.6,0,6.9,0C291.1,64.3,291.5,64.3,291.8,64.3z"/>
			<path class="st5" d="M316.7,62.6c0.3-0.6,0.5-1.1,0.8-1.7c2.3,0,4.6,0,6.9,0c1.5,0,2.7,1.3,2.6,2.7c-0.1,0.9,0,1.8,0,2.6
				c-0.6-0.1-1.1-0.1-1.7,0c0-0.8,0-1.6,0-2.4c0-0.8-0.3-1.1-1.1-1.1c-2.3,0-4.6,0-6.9,0C317.2,62.6,316.9,62.6,316.7,62.6z"/>
		</g>
		<polygon class="st6" points="310.1,48.4 301.6,56.9 297.4,52.7 294.3,55.7 298.6,59.9 301.6,62.9 304.6,59.9 313.2,51.4 		"/>
	</g>
	<g>
		<polygon class="st4" points="617.1,269.7 594.3,269.7 589.2,274.3 622.2,274.3 		"/>
		
			<rect x="589.2" y="274.3" transform="matrix(-1 -3.893698e-11 3.893698e-11 -1 1211.4078 554.2809)" class="st18" width="32.9" height="5.7"/>
		<path class="st4" d="M622.2,235.7l-2.7-5h-11.9c-10.3,0-18.6,8.3-18.6,18.6v11.9l5.2,8.6l9.1-25.1L622.2,235.7z"/>
		<path class="st18" d="M622.2,235.7h-14c-7.7,0-13.9,6.2-13.9,13.9v20.1h22.8l-11-21.7h4l4,7.9h5.7v-16.7L622.2,235.7z"/>
		<circle class="st6" cx="615.5" cy="242.6" r="1.6"/>
	</g>
	<line class="st17" x1="210.6" y1="186.6" x2="328.7" y2="186.6"/>
	<g>
		<path class="st4" d="M688.1,174h-35c-1.4,0-2.6,1.1-2.6,2.6v5.6h40v-5.6C690.6,175.1,689.5,174,688.1,174z"/>
		<path class="st18" d="M688.1,210h-35c-1.4,0-2.6-1.1-2.6-2.6v-25.3h40v25.4C690.6,208.9,689.5,210,688.1,210z"/>
		<g>
			<g>
				<polygon class="st6" points="664.3,200 662.3,202.1 656.3,196.1 662.3,190.1 664.3,192.3 660.5,196.1 				"/>
				
					<rect x="662.8" y="194.6" transform="matrix(0.4473 -0.8944 0.8944 0.4473 195.2192 707.9845)" class="st6" width="15.4" height="2.8"/>
				<polygon class="st6" points="678.8,202.1 676.7,200 680.6,196.1 676.7,192.3 678.8,190.1 684.8,196.1 				"/>
			</g>
		</g>
	</g>
	<g>
		<path class="st18" d="M247.1,160.9c-3.5-1.6-6.7-3.7-9.6-6.2c-6.9-6.1-10.4-13.7-10.4-22.6v-12.3c4.8-0.5,13.5-2,19.9-6.9
			c6.4,4.9,15.1,6.4,19.9,6.9v12.3C267,150.5,251.6,158.9,247.1,160.9z"/>
		<g>
			<path class="st4" d="M239.7,131.9h14.7c1.1,0,2,0.9,2,2v11.9c0,1.1-0.9,2-2,2h-14.7c-1.1,0-2-0.9-2-2v-11.9
				C237.8,132.8,238.7,131.9,239.7,131.9z"/>
			<path class="st6" d="M243.1,131.9v-2.1c-0.1-2.2,1.5-4.1,3.7-4.2s4.1,1.5,4.2,3.7c0,0.1,0,0.2,0,0.2c0,0.1,0,0.2,0,0.3v2.1h3.1
				v-2.1c0-3.9-3.2-7.1-7.1-7.1c-3.9,0-7.1,3.2-7.1,7.1c0,0,0,0,0,0l0,0v2.1H243.1z"/>
			<path class="st6" d="M249.4,138.4c0-1.3-1-2.3-2.3-2.3c-1.3,0-2.3,1-2.3,2.3c0,0.7,0.3,1.3,0.8,1.8v1.2c0,0.8,0.6,1.5,1.5,1.5
				c0.8,0,1.5-0.6,1.5-1.4v-1.4C249.1,139.7,249.4,139.1,249.4,138.4z"/>
		</g>
	</g>
	<g>
		<path class="st4" d="M595,58.8c0,20.4-16.5,36.9-36.9,36.9c-20.4,0-36.9-16.5-36.9-36.9c0-20.4,16.5-36.9,36.9-36.9
			C578.5,21.9,595,38.4,595,58.8z"/>
		<g>
			<g>
				
					<rect x="541.6" y="48.4" transform="matrix(0.7071 -0.7071 0.7071 0.7071 120.8635 414.9063)" class="st19" width="39.4" height="26.2"/>
				<g>
					<path class="st20" d="M560.8,81.8c1,1,1,2.7,0,3.7l0,0c-1,1-2.7,1-3.7,0l-7.2-7.2c-1-1-1-2.7,0-3.7l0,0c1-1,2.7-1,3.7,0
						L560.8,81.8z"/>
					<path class="st20" d="M565.8,76.8c1,1,1,2.7,0,3.7l0,0c-1,1-2.7,1-3.7,0l-7.2-7.2c-1-1-1-2.7,0-3.7l0,0c1-1,2.7-1,3.7,0
						L565.8,76.8z"/>
					<path class="st20" d="M570.7,71.9c1,1,1,2.7,0,3.7l0,0c-1,1-2.7,1-3.7,0l-7.2-7.2c-1-1-1-2.7,0-3.7l0,0c1-1,2.7-1,3.7,0
						L570.7,71.9z"/>
					<path class="st20" d="M575.7,66.9c1,1,1,2.7,0,3.7l0,0c-1,1-2.7,1-3.7,0l-7.2-7.2c-1-1-1-2.7,0-3.7l0,0c1-1,2.7-1,3.7,0
						L575.7,66.9z"/>
					
						<rect x="537.6" y="46.2" transform="matrix(0.7072 -0.707 0.707 0.7072 118.4812 407.0561)" class="st20" width="26.2" height="28.6"/>
				</g>
				<path class="st5" d="M536.7,65.1l-8.8-8.8c-1.3-1.3-1.3-3.4,0-4.6l13.9-13.9c1.3-1.3,3.4-1.3,4.6,0l8.8,8.8L536.7,65.1z"/>
				<path class="st19" d="M540.2,71.5c-1,1-2.7,1-3.7,0l0,0c-1-1-1-2.7,0-3.7l2.3-2.3c1-1,2.7-1,3.7,0l0,0c1,1,1,2.7,0,3.7
					L540.2,71.5z"/>
				<path class="st19" d="M545.1,76.4c-1,1-2.7,1-3.7,0l0,0c-1-1-1-2.7,0-3.7l2.3-2.3c1-1,2.7-1,3.7,0l0,0c1,1,1,2.7,0,3.7
					L545.1,76.4z"/>
				<path class="st19" d="M549.9,81.3c-1,1-2.7,1-3.7,0l0,0c-1-1-1-2.7,0-3.7l2.3-2.3c1-1,2.7-1,3.7,0l0,0c1,1,1,2.7,0,3.7
					L549.9,81.3z"/>
				<path class="st19" d="M554.8,86.1c-1,1-2.7,1-3.7,0l0,0c-1-1-1-2.7,0-3.7l2.3-2.3c1-1,2.7-1,3.7,0l0,0c1,1,1,2.7,0,3.7
					L554.8,86.1z"/>
				<path class="st0" d="M560.5,43.8l7-7c1-1,2.9-0.8,4.2,0.5l13.9,13.9c1.3,1.3,1.5,3.1,0.5,4.2l-7,7L560.5,43.8z"/>
				<path class="st19" d="M557.2,47.1l-5.4,5.4c0,0,0,0,0,0c-0.9,0.9-1.4,2.2-1.2,3.6l1.3,7.5c0.4,2.2,2.4,3.6,4.6,3.3
					c2.2-0.4,3.6-2.4,3.3-4.6l-0.6-3.6c-0.3-1-0.1-2.2,0.7-3c0.2-0.2,3-2.9,3-2.9c1.6-1.6,1.6-4.1,0-5.7
					C561.3,45.5,558.8,45.5,557.2,47.1z"/>
			</g>
			<circle class="st15" cx="534.1" cy="54.4" r="2.3"/>
		</g>
	</g>
	<g>
		<path class="st4" d="M274.2,217l0.3,0.8h7.1l-0.3-1.4c-1-5-4.9-8.9-10-10l-1.4-0.3v7C270.1,213.3,273.1,213.9,274.2,217L274.2,217
			z"/>
		<path class="st18" d="M260.5,228.8c2.2,1.9,5.1,3,8.2,3c6.2,0,11.4-4.4,12.6-10.3l0.3-1.4h-7.1c-0.1,0.1-1.1,4.7-5.8,4.7
			c-1.2,0-2.3-0.4-3.2-1L260.5,228.8z"/>
		<path class="st18" d="M263.9,222.2c-0.6-0.9-1-2-1-3.2c0-4.6,4.6-5.7,4.7-5.8v-7l-1.4,0.3c-5.9,1.2-10.3,6.4-10.3,12.5
			c0,3.1,1.1,6,3,8.2L263.9,222.2z"/>
		<path class="st4" d="M286.3,224.9h7v23.9h-7V224.9z"/>
		<path class="st4" d="M277,240.5h7v8.4h-7V240.5z"/>
		<path class="st4" d="M267.6,236.6h7v12.2h-7V236.6z"/>
		<path class="st4" d="M258.3,243.1h7v5.7h-7V243.1z"/>
		<path class="st18" d="M255.9,248.2h39.8v4.4h-39.8V248.2z"/>
	</g>
	<g>
		<g>
			<g>
				<g>
					<path class="st15" d="M539.5,163.3c0-5.1,2.9-9.4,7.1-11.6c-0.5-2.9-1.3-5.6-2.2-8.3c-4.7,0.3-9.4-2.1-11.9-6.4
						c-2.5-4.4-2.2-9.6,0.4-13.6c-1.9-2.2-3.9-4.2-6.1-6.1c-4,2.6-9.2,2.9-13.5,0.4c-4.4-2.5-6.7-7.2-6.4-11.9
						c-2.7-0.9-5.5-1.7-8.3-2.2c-2.1,4.2-6.5,7.1-11.5,7.1c-5.1,0-9.4-2.9-11.5-7.1c-2.9,0.5-5.6,1.3-8.3,2.2
						c0.3,4.7-2.1,9.4-6.4,11.9c-4.4,2.5-9.6,2.2-13.6-0.4c-2.2,1.9-4.2,3.9-6.1,6.1c2.6,4,2.9,9.2,0.4,13.6
						c-2.5,4.4-7.2,6.7-11.9,6.4c-0.9,2.7-1.7,5.5-2.2,8.3c4.2,2.1,7.1,6.5,7.1,11.5c0,5.1-2.9,9.4-7.1,11.5
						c0.6,2.9,1.3,5.6,2.2,8.3c4.7-0.3,9.4,2.1,11.9,6.4c2.5,4.4,2.2,9.6-0.4,13.6c1.9,2.2,3.9,4.2,6.1,6.1c4-2.6,9.2-2.9,13.6-0.4
						c4.4,2.5,6.7,7.2,6.4,12c2.7,0.9,5.5,1.7,8.3,2.2c2.1-4.2,6.5-7.1,11.5-7.1c5.1,0,9.4,2.9,11.5,7.1c2.9-0.5,5.6-1.3,8.3-2.2
						c-0.3-4.7,2.1-9.4,6.4-11.9c4.4-2.5,9.6-2.2,13.6,0.4c2.2-1.9,4.2-3.9,6.1-6.1c-2.6-4-2.9-9.2-0.4-13.5
						c2.5-4.4,7.2-6.7,11.9-6.4c0.9-2.7,1.7-5.5,2.2-8.3C542.4,172.7,539.5,168.3,539.5,163.3z M486.8,204.3c-22.6,0-41-18.4-41-41
						c0-22.6,18.4-41,41-41s41,18.4,41,41C527.8,185.9,509.4,204.3,486.8,204.3z"/>
				</g>
			</g>
			<path class="st5" d="M486.8,126.3c-20.4,0-37,16.6-37,37c0,20.4,16.6,37,37,37s37-16.6,37-37
				C523.8,142.9,507.2,126.3,486.8,126.3z"/>
		</g>
	</g>
	<g>
		<path class="st6" d="M467.7,178.7v-30.8h8.4v30.8H467.7z"/>
		<path class="st6" d="M498.5,178.7h-8.3v-24h-7.5v-6.8H506v6.8h-7.5V178.7z"/>
	</g>
	<g>
		<path class="st19" d="M508.7,45.3c1.2,1.5,6.1,5.9,5.9,6.1c-0.1,0.3-2.8-1.7-3.3-2c0.3,0.5,2.4,2.8,2.1,3
			c-0.3,0.2-3.8-3.1-4.7-3.7c-0.1,0.3,1.2,2.2,0.8,2.2c-1.2,0.1-4.7-5.8-2.2-6.3C507.3,44.7,507.5,43.8,508.7,45.3z"/>
		<g>
			<g>
				<path class="st19" d="M465.1,49.3c-0.9,1.9-4.8,7.9-4.6,8.2c0.2,0.2,2.5-2.5,3-3.1c-0.2,0.6-1.7,3.6-1.4,3.8
					c0.4,0.2,3.1-4.3,4-5.2c0.2,0.3-0.6,2.7-0.2,2.6c1.3-0.2,3.4-7.5,0.5-7.3C466.4,48.3,466,47.4,465.1,49.3z"/>
				<path class="st8" d="M475.9,99.4c-0.1,2-3.3,2.8-4.3,4.3c1,0.4,4.6,0.2,5.7-0.4c1.4-0.9,0.4-3.3,2-4.6L475.9,99.4z"/>
				<path class="st8" d="M498.8,99.1c0.1,1.5-0.4,3-0.3,4.6c2.4,0.3,4.4,0.8,6.8,0.6c-0.6-1.4-1.8-1.7-3.1-2.6
					c-2.1-1.4-1.1-2.3-1.9-4.3L498.8,99.1z"/>
				<path class="st9" d="M483,45.4l-8.3,54.5l4.8,0l10.6-42.4l7.7,43.3l3.8-0.3c0,0,0.3-24.7,0.1-32.4c-0.1-7.7,0.3-18.4-3.1-22.9
					C498.8,45.1,487.7,47.9,483,45.4z"/>
				<path class="st19" d="M489.7,16.7c-0.3,0-0.7-0.1-1.1-0.1c-1.8-0.3-2.7-0.9-3.7-2.3c-0.3-0.4-1.5-3.4-1.9-3.4
					c-1.3-0.1-3.6-0.3-4.4,0.9c-0.9,1.2-0.3,3.9-0.6,5.3c-0.2,0.8-0.8,1.4-1.1,2.1c-0.8,2.7,2.6,6.6,3.8,8.9
					c0.8,1.5,1.6,4.3,3.5,4.9c4.2,1.3,5.6-7.8,6-9.9c0.3-1.4,0.8-2.9,0.8-4.4C491.1,17,490.8,16.8,489.7,16.7z"/>
				<path class="st0" d="M481.7,49.4c-0.6-3.3-3.5-13.7-3.9-16.5l-3.9,7.1c-1.2,2.1-5.5,10.9-6.1,11.3l-3.4-1.7
					c0.4-0.5,3.6-10.1,3.9-10.7c1.4-3,2.5-7,3.9-11c1.3-3.9,0.3-7.8,5.6-10l2,0.6l3.2,1l4.1-3.4c0,0,5-1.1,8.4,2.1
					c3.4,3.2,5.1,7.3,8.1,12c2.2,3.5,4.4,13,5.7,14.7l-3.4,2c-0.6-0.9-1.7-6.5-11.5-20.9c0,0,6.4,18.7,6.6,20.4c0,0-3.6-0.5-9.3,0.9
					C485.8,48.7,481.7,49.4,481.7,49.4z"/>
				<path class="st4" d="M488.1,15.8c-0.2,0-0.5-0.1-0.9-0.1c-0.2,0-0.4-0.1-0.6-0.1c-0.6,0.5-1.2,0.9-2,1.1
					c-0.9,0.5-1.9,0.7-2.9,0.7c-1.1,0-2-0.2-2.9-0.7c-0.1,0-0.3-0.1-0.4-0.1c-0.2,0.4-0.6,0.8-0.7,1.3c-0.7,2.3,2.1,5.5,3.1,7.3
					c0.6,1.2,1.3,3.5,2.9,4c3.4,1.1,4.6-6.4,4.9-8.2c0.2-1.2,0.6-2.4,0.6-3.6C489.2,16.1,489,15.9,488.1,15.8z"/>
				<path class="st20" d="M478.1,17.3c0-0.2,0.1-0.3,0.1-0.4c0.3-1.4-0.3-4.1,0.5-5.2c0.5-0.8,1.8-0.9,2.8-0.9
					c0.5,0.6,1.1,1.3,1.5,1.7c-0.1,0.3-0.2,0.5-0.3,0.8C481.9,15.2,480.1,17.4,478.1,17.3z"/>
				<path class="st19" d="M482.6,13.3c0.2-0.3,0.4-0.6,0.6-0.9c1.1-2.2-1-6.5-2.4-8.3c-1.6-2-3.6-2.4-5.6-1.7
					c-4.9,1.8-2.2,11.1,1.5,13.4C478.5,17,481.2,15.1,482.6,13.3z"/>
				<path class="st12" d="M483.8,10.9c0.1-2.8,0.7-4.7,0.1-7.1c-0.7-2.6-3.9-4.2-6.5-3.8c-2.1,0.4-4.5,2.1-5.7,3.9
					c-0.6,1-1,2.2-0.7,3.4c0.5,1.7,1.1,1.9,2.1,1.8c0.3,0,1.4-0.5,1.6-0.6c0.1,2.8,3.2,0,4.1-0.3c2-0.5,2.9,1.6,4.3,2.5L483.8,10.9z
					"/>
				<polygon class="st14" points="482.9,19.6 481.6,22.5 483.6,23.2 484.7,44.9 488.8,48.9 490.4,44.6 485,23.2 486.3,21.4 
					483.2,19.3 				"/>
				<polygon class="st1" points="482.9,19.6 481.6,22.5 477.6,19.3 481.3,21.7 				"/>
				<polygon class="st1" points="483.8,19.6 486.5,21.4 488.1,16.9 486.3,20.6 				"/>
				<polygon class="st4" points="478.2,16.9 477,18.3 481.9,19.3 				"/>
				<polygon class="st4" points="483.9,18.7 485.9,15.1 489.1,16 483.8,19.1 				"/>
				<path class="st6" d="M478,15.1c-1,0.2-1.9-0.4-2.1-1.4l3.5-0.8C479.6,13.9,478.9,14.8,478,15.1z"/>
			</g>
		</g>
	</g>
	<g>
		<path class="st19" d="M527.9,199.6c-0.2,0.2,3.1,4.4,3.6,5.3c0.8,1.2,2.3,2.3,2.9,3.6c0.7-0.8,0.5-1.3,1.3-2.2
			c1-1.1,1-1.2,0.2-2.5c-0.3-0.5-0.5-0.9-0.8-1.4c-0.2-0.4,1.5-3.9,0.3-3.9c-1.2,0-1.1,2.2-1.4,1.5c-0.7-1.7-1.9-4.7-2.4-4.7
			c-0.6,0,0.9,3.6,0.3,4c-0.6-0.6-1.7-3.6-2.5-3.3c-0.8,0.4,1,3.3,1.3,4.2c-0.2-0.5-2.1-3.3-2.2-2.9c-0.2,0.4,1.2,3.4,1.5,4
			c-0.1-0.2-0.4-0.4-0.6-0.6C529.5,200.8,528.1,199.4,527.9,199.6z"/>
		<path class="st14" d="M563.9,213.2c2.2,2,3,4.9-1.3,6.6c-4.3,1.7-13.7,4.4-20.9-2.3c-7.2-6.7-9.5-10.5-9.5-10.5l3.7-3.4
			c0,0,5,8.2,12.7,10.5C556.3,216.3,561.3,210.9,563.9,213.2z"/>
	</g>
	<g>
		<path class="st20" d="M438.4,70.8c0.2-0.3,0.1-0.7,0.2-0.9c0.9-1.1,2.2-2,3-3.1c1.3-1.8,2.8-3.7,4.2-5.3c1.1-1.3,1.9-2.5,2.7-4
			c0.3-0.7,0.8-2.5,1.4-2.8c0.3,0.3-0.5,2.7,0.7,1.3c1-1.1,2.7-3.1,3.1-2.9c0.5,0.2-1.3,1.8-1.1,2.2c0.2,0.4,2.3-1.9,2.6-1.6
			c0.3,0.3-1.9,2.1-1.7,2.4c0.4,0.5,1.6-1.2,1.9-0.9c0.3,0.3-1.1,1.3-1.4,2c0.7,0.3,1.7-1.2,1.8-0.4c0.1,0.8-2.5,1.7-3.3,2.3
			c-1.4,1.2-3,2.3-3.7,4c-1.2,2.7-4,5-5.8,7.4c-1.3,1.8-4.7,3.1-6.1,4.7c-0.8-0.3-0.1-0.8-0.3-1.7C436.6,72.7,437.6,71.6,438.4,70.8
			z"/>
		<path class="st21" d="M449.7,62.4l-2.6-3l-11.1,9.9c0,0-16.4,1.9-13.5,8.4c2.3,5.2,17.2-2.6,17.2-2.6L449.7,62.4z"/>
		<path class="st20" d="M398.4,104.1c-0.3-0.5,1.8-4,2.1-4.8c0.5-1.1,1.5-2.1,1.8-3.3c0.7,0.6,0.6,1,1.3,1.6c0.9,0.8,0.9,0.9,0.5,2
			c-0.1,0.4-0.1,0.6-0.1,1.4c0,0.8,1,2.1,0.5,2.9c-0.5,0.7-1.2-1.5-1.3-0.9c-0.3,1.5-0.9,4.1-1.2,4.1c-0.5,0.1,0.2-3-0.4-3.3
			c-0.4,0.6-0.8,3.4-1.4,3.5c-0.6,0.1,0.3-3.3,0.4-4.1c-0.1,0.4-1.3,3-1.8,3c-0.4,0,0.9-3.3,1-3.8c-0.1,0.2-0.3,0.4-0.4,0.6
			C399.6,102.9,398.7,104.6,398.4,104.1z"/>
		<g>
			<path class="st8" d="M398,147.7l-0.4,3.9l8.1,1c0,0,0-1.8-3-2.8c-3-1-0.4-5.5-0.4-5.5L398,147.7z"/>
			<path class="st20" d="M422.7,53.8c0,0,2.7-0.8,4.5,3.5c1.7,1.9,2.4,1.3,2.6,1.9c0.2,0.6-0.7,1.3-0.6,1.7c0.2,0.5,1.3,2.6,0.3,3.3
				c-1,0.7-3.3,1.8-3.3,1.8s-0.4,2.8,0.5,3.8c0.4,0.5-0.3,4.8,1,6.4c1.5,1.8-8.1-5.7-8.1-5.7s3.3-1.6,0.9-3.4
				C418.1,65.2,411.3,55.6,422.7,53.8z"/>
			<path class="st6" d="M421.7,68.7c1-0.5,4.1,4.4,4.7,2.7c7.7,10.6-0.9,16.9-1.1,19.6c-0.3,2.7,0.5,6.7,2,9.2c0,0-3.8-0.5-5.9,0.4
				c-2,0.8-10-3.9-8.9-6.6c0,0,1.3-3.3,1.9-6.8c0.7-3.5,0.8-6.6,1.3-10C416.3,73.6,419.3,69.9,421.7,68.7z"/>
			<path class="st21" d="M412.5,98.6c0,0-6.2,5.7-6.7,12.3c-0.5,6.6-0.1,8.2-2.7,16c-2.6,7.8-5.1,20.8-5.1,20.8l3.2,0.5
				c0,0,6.7-9.8,11.2-21.5c4-10.3,10.6-26.6,10.6-26.6L412.5,98.6z"/>
			<path class="st8" d="M428.3,131.5l-0.9,5.8l4.3,2.8l5.8,0.6c0,0-0.7-1.5-3.2-2.4c-2.5-0.9-2.7-2.8-2.7-2.8l-0.3-2L428.3,131.5z"
				/>
			<path class="st21" d="M423,99.1c0,0,19,7.6,20.4,11.8l-11.8,23.9l-3.9-1c0,0,1.4-13.5,7.4-20l-21.3-5
				C413.7,109,410,100.6,423,99.1z"/>
			<path class="st15" d="M426.2,71.9l1.6,2.2l0.4-0.1c0,0,0.4-2.1-1.7-2.6L426.2,71.9z"/>
			<path class="st5" d="M428.2,74c0,0,3.2,3,1.4,8.1c-1.8,5.2-3.9,7-2.6,9l-1.2,1.6l-2.9-2.3c0,0-0.5-2.2,2.2-4.5
				c2.7-2.3,4.3-9.8,2.6-11.9L428.2,74z"/>
			<path class="st6" d="M421.7,68.1c-0.5-0.6,2.5,1.7,5,1.4l0.4,3l-6.4-2.4L421.7,68.1z"/>
			<path class="st8" d="M426.5,55.2c0,0.8-0.8,1.3-1.5,1.6c-1.4,0.5-2.7,1.1-2.7,2.8c0,0.3,0.4,2.5,0.7,2.5c-0.9,0-2-0.5-1.6,0.8
				c0.1,0.5,0.3,0.7,0.5,0.9c0.7,0.6-2.1,3-3,1.9c-1.6-2.1-3.8-5.4-2.7-8c0.8-2,2.8-3.6,4.9-4.3c1.4-0.5,5.1-0.7,5.4,1.5
				C426.5,55,426.5,55.1,426.5,55.2z"/>
			<path class="st12" d="M425.9,72.2c0,0,3,6.6-1.5,11.9c-4.5,5.3,3.1,16.3,1.5,17.9c-1.7,1.6-16.4,3.2-17,1.7
				c-0.6-1.5,1.9-9.6,2.6-16.2c0.7-6.6,4.6-18.3,9.4-18.5C424,68.9,425.7,71.8,425.9,72.2z"/>
			<path class="st21" d="M401,97.7l3.6,2.1l7.4-13.7c0,0,15.5-7.7,10.2-13c-4.2-4.3-16,8.6-16,8.6L401,97.7z"/>
		</g>
	</g>
</g>
</svg>
